<?xml version="1.0" encoding="utf-8"?>
<svg version="1.1" xmlns:xlink="http://www.w3.org/1999/xlink" width="48px" height="10px" preserveAspectRatio="xMinYMid meet" viewBox="389 121  48 8" xmlns="http://www.w3.org/2000/svg">
  <path d="M 391 125  L 430 125  " stroke-width="2" stroke="#ffcc33" fill="none" />
  <path d="M 392.5 121.5  A 3.5 3.5 0 0 0 389 125 A 3.5 3.5 0 0 0 392.5 128.5 A 3.5 3.5 0 0 0 396 125 A 3.5 3.5 0 0 0 392.5 121.5 Z M 428.5 121.5  A 3.5 3.5 0 0 0 425 125 A 3.5 3.5 0 0 0 428.5 128.5 A 3.5 3.5 0 0 0 432 125 A 3.5 3.5 0 0 0 428.5 121.5 Z " fill-rule="nonzero" fill="#ffcc33" stroke="none" />
</svg>