<?xml version="1.0" encoding="utf-8"?>
<svg version="1.1" xmlns:xlink="http://www.w3.org/1999/xlink" width="34px" height="10px" preserveAspectRatio="xMinYMid meet" viewBox="391 291  34 8" xmlns="http://www.w3.org/2000/svg">
  <path d="M 393 295  L 415 295  A 5 5 0 0 0 420 290 L 420 214  A 5 5 0 0 1 425 209 L 430 209  " stroke-width="2" stroke="#ffcc33" fill="none" />
  <path d="M 394.5 291.5  A 3.5 3.5 0 0 0 391 295 A 3.5 3.5 0 0 0 394.5 298.5 A 3.5 3.5 0 0 0 398 295 A 3.5 3.5 0 0 0 394.5 291.5 Z M 428.5 205.5  A 3.5 3.5 0 0 0 425 209 A 3.5 3.5 0 0 0 428.5 212.5 A 3.5 3.5 0 0 0 432 209 A 3.5 3.5 0 0 0 428.5 205.5 Z " fill-rule="nonzero" fill="#ffcc33" stroke="none" />
</svg>