<?xml version="1.0" encoding="utf-8"?>
<svg version="1.1" xmlns:xlink="http://www.w3.org/1999/xlink" width="10px" height="24px" preserveAspectRatio="xMidYMin meet" viewBox="780 185  8 24" xmlns="http://www.w3.org/2000/svg">
  <path d="M 784 207  L 784 195  A 5 5 0 0 1 789 190 L 825 190  A 5 5 0 0 1 830 195 L 830 429  A 5 5 0 0 0 835 434 L 841 434  " stroke-width="2" stroke="#ffcc33" fill="none" />
  <path d="M 784 202  A 3.5 3.5 0 0 0 780.5 205.5 A 3.5 3.5 0 0 0 784 209 A 3.5 3.5 0 0 0 787.5 205.5 A 3.5 3.5 0 0 0 784 202 Z M 839.5 430.5  A 3.5 3.5 0 0 0 836 434 A 3.5 3.5 0 0 0 839.5 437.5 A 3.5 3.5 0 0 0 843 434 A 3.5 3.5 0 0 0 839.5 430.5 Z " fill-rule="nonzero" fill="#ffcc33" stroke="none" />
</svg>