<?xml version="1.0" encoding="utf-8"?>
<svg version="1.1" xmlns:xlink="http://www.w3.org/1999/xlink" width="40px" height="36px" xmlns="http://www.w3.org/2000/svg">
  <g transform="matrix(1 0 0 1 -446 -623 )">
    <path d="M 39.5758928571428 11.9475  C 39.858630952381 12.2325  40 12.5700000000001  40 12.96  C 40 13.35  39.858630952381 13.6875  39.5758928571428 13.9725  L 28.1473214285714 25.4925  C 27.8645833333333 25.7775  27.5297619047619 25.92  27.1428571428572 25.92  C 26.7559523809524 25.92  26.421130952381 25.7775  26.1383928571428 25.4925  C 25.8556547619048 25.2075  25.7142857142857 24.87  25.7142857142857 24.48  L 25.7142857142857 18.72  L 20.7142857142857 18.72  C 19.2559523809524 18.72  17.9501488095238 18.765  16.796875 18.855  C 15.6436011904762 18.9450000000001  14.4977678571428 19.10625  13.359375 19.33875  C 12.2209821428572 19.57125  11.2313988095238 19.89  10.390625 20.295  C 9.5498511904762 20.7  8.76488095238096 21.2212500000001  8.03571428571428 21.85875  C 7.30654761904759 22.49625  6.71130952380952 23.25375  6.25 24.13125  C 5.78869047619048 25.00875  5.42782738095241 26.0475  5.16741071428572 27.2474999999999  C 4.90699404761904 28.4475  4.77678571428572 29.805  4.77678571428572 31.3200000000001  C 4.77678571428572 32.145  4.81398809523807 33.0675  4.88839285714283 34.0875  C 4.88839285714283 34.1775  4.90699404761904 34.35375  4.94419642857144 34.61625  C 4.9813988095238 34.87875  5 35.0775  5 35.2125  C 5 35.4375  4.93675595238096 35.625  4.81026785714283 35.775  C 4.68377976190476 35.925  4.50892857142856 36  4.28571428571428 36  C 4.04761904761904 36  3.83928571428572 35.8724999999999  3.66071428571428 35.6175  C 3.55654761904759 35.4825  3.45982142857144 35.3175  3.37053571428572 35.1224999999999  C 3.28125 34.9275  3.18080357142856 34.7025  3.06919642857144 34.4475  C 2.95758928571428 34.1925  2.87946428571428 34.0125  2.83482142857144 33.9075  C 0.944940476190482 29.6325000000001  0 26.25  0 23.76  C 0 20.775  0.394345238095241 18.2775  1.18303571428572 16.2675  C 3.59375 10.2225  10.1041666666667 7.20000000000005  20.7142857142857 7.20000000000005  L 25.7142857142857 7.20000000000005  L 25.7142857142857 1.44000000000005  C 25.7142857142857 1.04999999999995  25.8556547619048 0.712499999999977  26.1383928571428 0.427500000000009  C 26.421130952381 0.142500000000041  26.7559523809524 0  27.1428571428572 0  C 27.5297619047619 0  27.8645833333333 0.142500000000041  28.1473214285714 0.427500000000009  L 39.5758928571428 11.9475  Z " fill-rule="nonzero" fill="#ffffff" stroke="none" transform="matrix(1 0 0 1 446 623 )" />
  </g>
</svg>