<?xml version="1.0" encoding="utf-8"?>
<svg version="1.1" xmlns:xlink="http://www.w3.org/1999/xlink" width="18px" height="18px" xmlns="http://www.w3.org/2000/svg">
  <g transform="matrix(1 0 0 1 -627 -483 )">
    <path d="M 5.5044642857143 0.71316964285711  C 6.61607142857143 0.237723214285722  7.78125000000004 0  9 0  C 10.21875 0  11.3839285714286 0.237723214285722  12.4955357142857 0.71316964285711  C 13.6071428571428 1.18861607142856  14.5647321428571 1.828125  15.3683035714286 2.63169642857139  C 16.171875 3.43526785714289  16.8113839285714 4.39285714285717  17.2868303571429 5.50446428571428  C 17.7622767857143 6.61607142857144  18 7.78125000000006  18 9  C 18 10.2120535714286  17.7639508928571 11.3738839285714  17.2918526785714 12.4854910714286  C 16.8197544642857 13.5970982142857  16.1819196428571 14.5546875  15.3783482142857 15.3582589285714  C 14.5747767857143 16.1618303571429  13.6171875 16.8030133928572  12.5055803571429 17.2818080357143  C 11.3939732142857 17.7606026785714  10.2254464285714 18  9 18  C 7.7745535714286 18  6.60602678571433 17.7622767857143  5.4944196428571 17.2868303571429  C 4.38281249999996 16.8113839285714  3.42689732142853 16.1702008928572  2.6266741071429 15.36328125  C 1.82645089285717 14.5563616071428  1.18861607142857 13.5987723214286  0.713169642857096 12.4905133928571  C 0.237723214285737 11.3822544642857  0 10.2187499999999  0 9  C 0 7.78125000000006  0.237723214285737 6.61607142857144  0.713169642857096 5.50446428571428  C 1.18861607142857 4.39285714285717  1.828125 3.43526785714289  2.6316964285714 2.63169642857139  C 3.4352678571429 1.828125  4.39285714285717 1.18861607142856  5.5044642857143 0.71316964285711  Z M 12.1439732142857 10.2857142857143  C 13.7511160714286 10.2857142857143  14.7756696428571 11.3805803571429  15.2176339285714 13.5703125  C 16.2154017857143 12.1975446428572  16.7142857142857 10.6741071428571  16.7142857142857 9  C 16.7142857142857 7.95535714285711  16.5100446428571 6.95758928571433  16.1015625 6.00669642857139  C 15.6930803571429 5.05580357142856  15.1439732142857 4.23549107142856  14.4542410714286 3.54575892857139  C 13.7645089285715 2.85602678571428  12.9441964285714 2.30691964285711  11.9933035714286 1.8984375  C 11.0424107142857 1.48995535714289  10.0446428571429 1.28571428571428  9 1.28571428571428  C 7.9553571428571 1.28571428571428  6.95758928571433 1.48995535714289  6.0066964285714 1.8984375  C 5.05580357142857 2.30691964285711  4.23549107142853 2.85602678571428  3.5457589285714 3.54575892857139  C 2.85602678571426 4.23549107142856  2.30691964285713 5.05580357142856  1.8984375 6.00669642857139  C 1.48995535714287 6.95758928571433  1.2857142857143 7.95535714285711  1.2857142857143 9  C 1.2857142857143 10.6741071428571  1.78459821428574 12.1975446428572  2.7823660714286 13.5703125  C 3.2243303571429 11.3805803571429  4.2488839285714 10.2857142857143  5.8560267857143 10.2857142857143  C 6.73325892857147 11.1428571428572  7.78125000000004 11.5714285714286  9 11.5714285714286  C 10.21875 11.5714285714286  11.2667410714285 11.1428571428572  12.1439732142857 10.2857142857143  Z M 11.7271205357143 9.79854910714289  C 12.48046875 9.04520089285711  12.8571428571429 8.13616071428572  12.8571428571429 7.07142857142861  C 12.8571428571429 6.00669642857139  12.48046875 5.09765625  11.7271205357143 4.34430803571428  C 10.9737723214286 3.59095982142861  10.0647321428571 3.21428571428572  9 3.21428571428572  C 7.9352678571429 3.21428571428572  7.0262276785714 3.59095982142861  6.2728794642857 4.34430803571428  C 5.51953125 5.09765625  5.1428571428571 6.00669642857139  5.1428571428571 7.07142857142861  C 5.1428571428571 8.13616071428572  5.51953125 9.04520089285711  6.2728794642857 9.79854910714289  C 7.0262276785714 10.5518973214286  7.9352678571429 10.9285714285714  9 10.9285714285714  C 10.0647321428571 10.9285714285714  10.9737723214286 10.5518973214286  11.7271205357143 9.79854910714289  Z " fill-rule="nonzero" fill="#ffffff" stroke="none" transform="matrix(1 0 0 1 627 483 )" />
  </g>
</svg>