<?xml version="1.0" encoding="utf-8"?>
<svg version="1.1" xmlns:xlink="http://www.w3.org/1999/xlink" width="40px" height="34px" xmlns="http://www.w3.org/2000/svg">
  <g transform="matrix(1 0 0 1 -444 -1456 )">
    <path d="M 13.4486607142857 16.3088372093023  C 14.0066964285714 15.7506976744186  14.2857142857143 15.0772093023256  14.2857142857143 14.2883720930233  C 14.2857142857143 13.4995348837209  14.0066964285714 12.8260465116279  13.4486607142857 12.2679069767442  C 12.890625 11.7097674418605  12.2172619047619 11.4306976744186  11.4285714285714 11.4306976744186  C 10.639880952381 11.4306976744186  9.96651785714283 11.7097674418605  9.40848214285717 12.2679069767442  C 8.85044642857144 12.8260465116279  8.57142857142856 13.4995348837209  8.57142857142856 14.2883720930233  C 8.57142857142856 15.0772093023256  8.85044642857144 15.7506976744186  9.40848214285717 16.3088372093023  C 9.96651785714283 16.866976744186  10.639880952381 17.1460465116279  11.4285714285714 17.1460465116279  C 12.2172619047619 17.1460465116279  12.890625 16.866976744186  13.4486607142857 16.3088372093023  Z M 22.0200892857143 16.3088372093023  C 22.578125 15.7506976744186  22.8571428571428 15.0772093023256  22.8571428571428 14.2883720930233  C 22.8571428571428 13.4995348837209  22.578125 12.8260465116279  22.0200892857143 12.2679069767442  C 21.4620535714286 11.7097674418605  20.7886904761905 11.4306976744186  20 11.4306976744186  C 19.2113095238095 11.4306976744186  18.5379464285714 11.7097674418605  17.9799107142857 12.2679069767442  C 17.421875 12.8260465116279  17.1428571428572 13.4995348837209  17.1428571428572 14.2883720930233  C 17.1428571428572 15.0772093023256  17.421875 15.7506976744186  17.9799107142857 16.3088372093023  C 18.5379464285714 16.866976744186  19.2113095238095 17.1460465116279  20 17.1460465116279  C 20.7886904761905 17.1460465116279  21.4620535714286 16.866976744186  22.0200892857143 16.3088372093023  Z M 30.5915178571428 16.3088372093023  C 31.1495535714286 15.7506976744186  31.4285714285714 15.0772093023256  31.4285714285714 14.2883720930233  C 31.4285714285714 13.4995348837209  31.1495535714286 12.8260465116279  30.5915178571428 12.2679069767442  C 30.0334821428572 11.7097674418605  29.360119047619 11.4306976744186  28.5714285714286 11.4306976744186  C 27.7827380952381 11.4306976744186  27.109375 11.7097674418605  26.5513392857143 12.2679069767442  C 25.9933035714286 12.8260465116279  25.7142857142857 13.4995348837209  25.7142857142857 14.2883720930233  C 25.7142857142857 15.0772093023256  25.9933035714286 15.7506976744186  26.5513392857143 16.3088372093023  C 27.109375 16.866976744186  27.7827380952381 17.1460465116279  28.5714285714286 17.1460465116279  C 29.360119047619 17.1460465116279  30.0334821428572 16.866976744186  30.5915178571428 16.3088372093023  Z M 37.3214285714286 7.11069767441859  C 39.1071428571428 9.30604651162793  40 11.6986046511628  40 14.2883720930233  C 40 16.8781395348838  39.1071428571428 19.2706976744186  37.3214285714286 21.466046511628  C 35.5357142857143 23.6613953488372  33.110119047619 25.3953488372093  30.0446428571428 26.6679069767442  C 26.9791666666667 27.9404651162791  23.6309523809524 28.5767441860465  20 28.5767441860465  C 18.3630952380952 28.5767441860465  16.7931547619048 28.4427906976745  15.2901785714286 28.1748837209303  C 12.7157738095238 30.7497674418605  9.47916666666669 32.4539534883721  5.58035714285717 33.2874418604652  C 4.80654761904759 33.4362790697675  4.16666666666669 33.533023255814  3.66071428571428 33.5776744186047  C 3.48214285714283 33.5925581395349  3.31845238095241 33.5479069767442  3.16964285714283 33.4437209302326  C 3.02083333333331 33.3395348837209  2.92410714285717 33.2055813953489  2.87946428571428 33.0418604651163  C 2.81994047619048 32.8186046511628  2.96875 32.5432558139535  3.32589285714283 32.2158139534884  C 3.40029761904759 32.1413953488373  3.5751488095238 31.9813953488372  3.85044642857144 31.7358139534884  C 4.12574404761904 31.4902325581396  4.3154761904762 31.3153488372093  4.41964285714283 31.2111627906977  C 4.52380952380952 31.1069767441861  4.69866071428572 30.9172093023256  4.94419642857144 30.6418604651163  C 5.18973214285717 30.366511627907  5.36830357142856 30.1320930232558  5.47991071428572 29.9386046511628  C 5.59151785714283 29.7451162790698  5.74404761904759 29.4697674418605  5.9375 29.1125581395349  C 6.13095238095241 28.7553488372093  6.27976190476193 28.3981395348837  6.38392857142856 28.0409302325581  C 6.48809523809524 27.6837209302326  6.59598214285717 27.2558139534884  6.70758928571428 26.7572093023256  C 6.81919642857144 26.2586046511628  6.91220238095241 25.7190697674419  6.98660714285717 25.1386046511628  C 4.81398809523807 23.7990697674419  3.1063988095238 22.1879069767442  1.86383928571428 20.3051162790698  C 0.621279761904759 18.4223255813953  0 16.4167441860465  0 14.2883720930233  C 0 11.6986046511628  0.892857142857167 9.30604651162793  2.67857142857144 7.11069767441859  C 4.46428571428572 4.91534883720931  6.88988095238096 3.18139534883721  9.95535714285717 1.90883720930231  C 13.0208333333333 0.636279069767454  16.3690476190476 0  20 0  C 23.6309523809524 0  26.9791666666667 0.636279069767454  30.0446428571428 1.90883720930231  C 33.110119047619 3.18139534883721  35.5357142857143 4.91534883720931  37.3214285714286 7.11069767441859  Z " fill-rule="nonzero" fill="#c9c9c9" stroke="none" transform="matrix(1 0 0 1 444 1456 )" />
  </g>
</svg>