<?xml version="1.0" encoding="utf-8"?>
<svg version="1.1" xmlns:xlink="http://www.w3.org/1999/xlink" width="40px" height="40px" xmlns="http://www.w3.org/2000/svg">
  <g transform="matrix(1 0 0 1 -444 -1310 )">
    <path d="M 12.2321428571429 1.58482142857139  C 14.702380952381 0.528273809523796  17.2916666666667 0  20 0  C 22.7083333333333 0  25.297619047619 0.528273809523796  27.7678571428571 1.58482142857139  C 30.2380952380952 2.64136904761904  32.3660714285714 4.0625  34.1517857142857 5.84821428571428  C 35.9375 7.63392857142861  37.358630952381 9.76190476190476  38.4151785714286 12.2321428571429  C 39.4717261904762 14.702380952381  40 17.2916666666667  40 20  C 40 22.6934523809524  39.4754464285714 25.2752976190476  38.4263392857143 27.7455357142857  C 37.3772321428571 30.2157738095239  35.9598214285714 32.34375  34.1741071428571 34.1294642857143  C 32.3883928571429 35.9151785714286  30.2604166666667 37.3400297619048  27.7901785714286 38.4040178571429  C 25.3199404761904 39.468005952381  22.7232142857143 40  20 40  C 17.2767857142857 40  14.6800595238096 39.4717261904762  12.2098214285714 38.4151785714286  C 9.73958333333331 37.358630952381  7.61532738095235 35.9337797619048  5.83705357142861 34.140625  C 4.05877976190476 32.3474702380952  2.64136904761904 30.219494047619  1.58482142857139 27.7566964285714  C 0.528273809523796 25.2938988095238  0 22.7083333333333  0 20  C 0 17.2916666666667  0.528273809523796 14.702380952381  1.58482142857139 12.2321428571429  C 2.64136904761904 9.76190476190476  4.0625 7.63392857142861  5.84821428571428 5.84821428571428  C 7.63392857142861 4.0625  9.76190476190476 2.64136904761904  12.2321428571429 1.58482142857139  Z M 26.9866071428571 22.8571428571429  C 30.5580357142857 22.8571428571429  32.8348214285714 25.2901785714286  33.8169642857143 30.15625  C 36.0342261904762 27.1056547619048  37.1428571428571 23.7202380952381  37.1428571428571 20  C 37.1428571428571 17.6785714285714  36.6889880952381 15.4613095238096  35.78125 13.3482142857143  C 34.8735119047619 11.235119047619  33.6532738095239 9.41220238095235  32.1205357142857 7.87946428571428  C 30.5877976190476 6.3467261904762  28.764880952381 5.12648809523807  26.6517857142857 4.21875  C 24.5386904761904 3.31101190476193  22.3214285714286 2.85714285714289  20 2.85714285714289  C 17.6785714285714 2.85714285714289  15.4613095238096 3.31101190476193  13.3482142857143 4.21875  C 11.235119047619 5.12648809523807  9.41220238095235 6.3467261904762  7.87946428571428 7.87946428571428  C 6.3467261904762 9.41220238095235  5.12648809523807 11.235119047619  4.21875 13.3482142857143  C 3.31101190476193 15.4613095238096  2.85714285714289 17.6785714285714  2.85714285714289 20  C 2.85714285714289 23.7202380952381  3.9657738095238 27.1056547619048  6.18303571428572 30.15625  C 7.16517857142861 25.2901785714286  9.44196428571428 22.8571428571429  13.0133928571429 22.8571428571429  C 14.9627976190476 24.7619047619048  17.2916666666667 25.7142857142857  20 25.7142857142857  C 22.7083333333333 25.7142857142857  25.0372023809524 24.7619047619048  26.9866071428571 22.8571428571429  Z M 26.0602678571429 21.7745535714286  C 27.734375 20.1004464285714  28.5714285714286 18.0803571428571  28.5714285714286 15.7142857142857  C 28.5714285714286 13.3482142857143  27.734375 11.328125  26.0602678571429 9.65401785714289  C 24.3861607142857 7.97991071428572  22.3660714285714 7.14285714285711  20 7.14285714285711  C 17.6339285714286 7.14285714285711  15.6138392857143 7.97991071428572  13.9397321428571 9.65401785714289  C 12.265625 11.328125  11.4285714285714 13.3482142857143  11.4285714285714 15.7142857142857  C 11.4285714285714 18.0803571428571  12.265625 20.1004464285714  13.9397321428571 21.7745535714286  C 15.6138392857143 23.4486607142857  17.6339285714286 24.2857142857143  20 24.2857142857143  C 22.3660714285714 24.2857142857143  24.3861607142857 23.4486607142857  26.0602678571429 21.7745535714286  Z " fill-rule="nonzero" fill="#999999" stroke="none" transform="matrix(1 0 0 1 444 1310 )" />
  </g>
</svg>