<?xml version="1.0" encoding="utf-8"?>
<svg version="1.1" xmlns:xlink="http://www.w3.org/1999/xlink" width="30px" height="30px" xmlns="http://www.w3.org/2000/svg">
  <g transform="matrix(1 0 0 1 -144 -1302 )">
    <path d="M 9.17410714285717 1.18861607142856  C 11.0267857142857 0.396205357142833  12.96875 0  15 0  C 17.03125 0  18.9732142857142 0.396205357142833  20.8258928571429 1.18861607142856  C 22.6785714285714 1.98102678571428  24.2745535714286 3.046875  25.6138392857143 4.38616071428572  C 26.953125 5.72544642857144  28.0189732142858 7.32142857142856  28.8113839285714 9.17410714285717  C 29.6037946428571 11.0267857142857  30 12.96875  30 15  C 30 17.0200892857143  29.6065848214286 18.9564732142857  28.8197544642857 20.8091517857143  C 28.0329241071429 22.6618303571429  26.9698660714286 24.2578125  25.6305803571429 25.5970982142857  C 24.2912946428571 26.9363839285714  22.6953125 28.0050223214286  20.8426339285714 28.8030133928572  C 18.9899553571428 29.6010044642857  17.0424107142857 30  15 30  C 12.9575892857143 30  11.0100446428572 29.6037946428572  9.15736607142856 28.8113839285714  C 7.3046875 28.0189732142857  5.71149553571428 26.9503348214286  4.37779017857144 25.60546875  C 3.04408482142856 24.2606026785714  1.98102678571428 22.6646205357143  1.18861607142856 20.8175223214286  C 0.396205357142833 18.9704241071428  0 17.03125  0 15  C 0 12.96875  0.396205357142833 11.0267857142857  1.18861607142856 9.17410714285717  C 1.98102678571428 7.32142857142856  3.046875 5.72544642857144  4.38616071428572 4.38616071428572  C 5.72544642857144 3.046875  7.32142857142856 1.98102678571428  9.17410714285717 1.18861607142856  Z M 20.2399553571429 17.1428571428572  C 22.9185267857143 17.1428571428572  24.6261160714286 18.9676339285714  25.3627232142857 22.6171875  C 27.0256696428571 20.3292410714286  27.8571428571429 17.7901785714286  27.8571428571429 15  C 27.8571428571429 13.2589285714286  27.5167410714286 11.5959821428572  26.8359375 10.0111607142857  C 26.1551339285714 8.42633928571428  25.2399553571429 7.05915178571428  24.0904017857143 5.90959821428572  C 22.9408482142858 4.76004464285717  21.5736607142858 3.84486607142855  19.9888392857143 3.1640625  C 18.4040178571428 2.48325892857144  16.7410714285714 2.14285714285717  15 2.14285714285717  C 13.2589285714286 2.14285714285717  11.5959821428572 2.48325892857144  10.0111607142857 3.1640625  C 8.42633928571428 3.84486607142855  7.05915178571428 4.76004464285717  5.90959821428572 5.90959821428572  C 4.76004464285717 7.05915178571428  3.84486607142855 8.42633928571428  3.1640625 10.0111607142857  C 2.48325892857144 11.5959821428572  2.14285714285717 13.2589285714286  2.14285714285717 15  C 2.14285714285717 17.7901785714286  2.97433035714283 20.3292410714286  4.63727678571428 22.6171875  C 5.37388392857144 18.9676339285714  7.08147321428572 17.1428571428572  9.76004464285717 17.1428571428572  C 11.2220982142857 18.5714285714286  12.96875 19.2857142857143  15 19.2857142857143  C 17.03125 19.2857142857143  18.7779017857142 18.5714285714286  20.2399553571429 17.1428571428572  Z M 19.5452008928571 16.3309151785714  C 20.80078125 15.0753348214286  21.4285714285714 13.5602678571428  21.4285714285714 11.7857142857143  C 21.4285714285714 10.0111607142857  20.80078125 8.49609375  19.5452008928571 7.24051339285717  C 18.2896205357143 5.98493303571428  16.7745535714286 5.35714285714283  15 5.35714285714283  C 13.2254464285714 5.35714285714283  11.7103794642857 5.98493303571428  10.4547991071428 7.24051339285717  C 9.19921875 8.49609375  8.57142857142856 10.0111607142857  8.57142857142856 11.7857142857143  C 8.57142857142856 13.5602678571428  9.19921875 15.0753348214286  10.4547991071428 16.3309151785714  C 11.7103794642857 17.5864955357143  13.2254464285714 18.2142857142857  15 18.2142857142857  C 16.7745535714286 18.2142857142857  18.2896205357143 17.5864955357143  19.5452008928571 16.3309151785714  Z " fill-rule="nonzero" fill="#ffffff" stroke="none" transform="matrix(1 0 0 1 144 1302 )" />
  </g>
</svg>