<?xml version="1.0" encoding="utf-8"?>
<svg version="1.1" xmlns:xlink="http://www.w3.org/1999/xlink" width="40px" height="33px" xmlns="http://www.w3.org/2000/svg">
  <g transform="matrix(1 0 0 1 -156 -2437 )">
    <path d="M 10.83984375 9.13405275779382  C 11.1653645833333 8.81286970423662  11.328125 8.38353317346105  11.328125 7.84604316546756  C 11.328125 7.30855315747408  11.1653645833333 6.87593924860107  10.83984375 6.54820143884899  C 10.5143229166667 6.22046362909691  10.0846354166667 6.05659472422053  9.55078125 6.05659472422053  C 8.99088541666667 6.05659472422053  8.49609375 6.22374100719412  8.06640625 6.5580335731413  C 7.63671875 6.89232613908848  7.421875 7.32166266986405  7.421875 7.84604316546756  C 7.421875 8.3573141486811  7.63671875 8.78009592326157  8.06640625 9.11438848920875  C 8.49609375 9.44868105515593  8.99088541666667 9.61582733812952  9.55078125 9.61582733812952  C 10.0846354166667 9.61582733812952  10.5143229166667 9.4552358113508  10.83984375 9.13405275779382  Z M 25.341796875 18.8187050359711  C 25.673828125 18.5302957633889  25.83984375 18.1960031974418  25.83984375 17.8158273381296  C 25.83984375 17.4487609912069  25.673828125 17.1210231814548  25.341796875 16.8326139088726  C 25.009765625 16.5442046362907  24.5833333333333 16.3999999999999  24.0625 16.3999999999999  C 23.7109375 16.3999999999999  23.388671875 16.5474820143884  23.095703125 16.8424460431654  C 22.802734375 17.1374100719424  22.65625 17.4618705035969  22.65625 17.8158273381296  C 22.65625 18.1828936850518  22.802734375 18.5139088729015  23.095703125 18.8088729016786  C 23.388671875 19.1038369304554  23.7109375 19.2513189448439  24.0625 19.2513189448439  C 24.5833333333333 19.2513189448439  25.009765625 19.107114308553  25.341796875 18.8187050359711  Z M 20.751953125 9.13405275779382  C 21.0709635416667 8.81286970423662  21.23046875 8.38353317346105  21.23046875 7.84604316546756  C 21.23046875 7.30855315747408  21.0709635416667 6.87593924860107  20.751953125 6.54820143884899  C 20.4329427083333 6.22046362909691  20.0065104166667 6.05659472422053  19.47265625 6.05659472422053  C 18.9127604166667 6.05659472422053  18.41796875 6.22374100719412  17.98828125 6.5580335731413  C 17.55859375 6.89232613908848  17.34375 7.32166266986405  17.34375 7.84604316546756  C 17.34375 8.3573141486811  17.55859375 8.78009592326157  17.98828125 9.11438848920875  C 18.41796875 9.44868105515593  18.9127604166667 9.61582733812952  19.47265625 9.61582733812952  C 20.0065104166667 9.61582733812952  20.4329427083333 9.4552358113508  20.751953125 9.13405275779382  Z M 33.125 18.8187050359711  C 33.4635416666667 18.5302957633889  33.6328125 18.1960031974418  33.6328125 17.8158273381296  C 33.6328125 17.4487609912069  33.4635416666667 17.1210231814548  33.125 16.8326139088726  C 32.7864583333333 16.5442046362907  32.36328125 16.3999999999999  31.85546875 16.3999999999999  C 31.50390625 16.3999999999999  31.181640625 16.5474820143884  30.888671875 16.8424460431654  C 30.595703125 17.1374100719424  30.44921875 17.4618705035969  30.44921875 17.8158273381296  C 30.44921875 18.1828936850518  30.595703125 18.5139088729015  30.888671875 18.8088729016786  C 31.181640625 19.1038369304554  31.50390625 19.2513189448439  31.85546875 19.2513189448439  C 32.36328125 19.2513189448439  32.7864583333333 19.107114308553  33.125 18.8187050359711  Z M 25.771484375 4.88657074340517  C 27.1451822916667 6.41382893685045  28.0338541666667 8.12134292565952  28.4375 10.0091127098322  C 28.0338541666667 9.95667466027157  27.578125 9.93045563549163  27.0703125 9.93045563549163  C 24.8697916666667 9.93045563549163  22.8450520833333 10.4351718625101  20.99609375 11.4446043165469  C 19.1471354166667 12.4540367705833  17.6920572916667 13.8207034372501  16.630859375 15.5446043165466  C 15.5696614583333 17.2685051958433  15.0390625 19.1529976019183  15.0390625 21.198081534772  C 15.0390625 22.220623501199  15.1888020833333 23.2169464428455  15.48828125 24.1870503597122  C 15.0325520833333 24.2263788968824  14.58984375 24.2460431654674  14.16015625 24.2460431654674  C 13.8216145833333 24.2460431654674  13.49609375 24.2362110311751  13.18359375 24.2165467625896  C 12.87109375 24.1968824940045  12.5130208333333 24.1542765787367  12.109375 24.0887290167866  C 11.7057291666667 24.023181454836  11.416015625 23.9772981614708  11.240234375 23.9510791366904  C 11.064453125 23.9248601119102  10.7096354166667 23.8560351718625  10.17578125 23.7446043165467  C 9.64192708333333 23.6331734612309  9.31640625 23.5643485211831  9.19921875 23.5381294964027  L 4.2578125 26.0354916067145  L 5.6640625 21.7486810551557  C 1.88802083333333 19.087450039968  0 15.8756195043964  0 12.1131894484413  C 0 9.89768185451635  0.634765625 7.85915267785754  1.904296875 5.99760191846508  C 3.173828125 4.13605115907285  4.892578125 2.67106314948046  7.060546875 1.60263788968837  C 9.228515625 0.534212629896274  11.5950520833333 0  14.16015625 0  C 16.4518229166667 0  18.6165364583333 0.432613908872781  20.654296875 1.29784172661857  C 22.6920572916667 2.16306954436459  24.3977864583333 3.35931254996012  25.771484375 4.88657074340517  Z M 38.330078125 15.8592326139087  C 39.443359375 17.4520383693045  40 19.1792166266987  40 21.0407673860909  C 40 22.5745803357313  39.5540364583333 24.0395683453237  38.662109375 25.4357314148679  C 37.7701822916667 26.8318944844123  36.5625 28.1002398081532  35.0390625 29.240767386091  L 36.11328125 32.7999999999997  L 32.2265625 30.6565947242202  C 30.2734375 31.1416466826536  28.8541666666667 31.3841726618703  27.96875 31.3841726618703  C 25.7682291666667 31.3841726618703  23.7434895833333 30.9220623501199  21.89453125 29.9978417266186  C 20.0455729166667 29.0736211031174  18.5904947916667 27.8183852917664  17.529296875 26.2321342925657  C 16.4680989583333 24.6458832933652  15.9375 22.9154276578734  15.9375 21.0407673860909  C 15.9375 19.1661071143083  16.4680989583333 17.4356514788169  17.529296875 15.8494004796164  C 18.5904947916667 14.2631494804157  20.0455729166667 13.0079136690647  21.89453125 12.0836930455635  C 23.7434895833333 11.1594724220622  25.7682291666667 10.6973621103116  27.96875 10.6973621103116  C 30.0651041666667 10.6973621103116  32.0377604166667 11.1594724220622  33.88671875 12.0836930455635  C 35.7356770833333 13.0079136690647  37.216796875 14.2664268585131  38.330078125 15.8592326139087  Z " fill-rule="nonzero" fill="#ffffff" stroke="none" transform="matrix(1 0 0 1 156 2437 )" />
  </g>
</svg>