<?xml version="1.0" encoding="utf-8"?>
<svg version="1.1" xmlns:xlink="http://www.w3.org/1999/xlink" width="38px" height="39px" xmlns="http://www.w3.org/2000/svg">
  <g transform="matrix(1 0 0 1 -334 -2434 )">
    <path d="M 0 27.5236880466473  C 0 23.5566994655005  1.81776765375858 20.1955782312923  5.45330296127563 17.4403243440233  C 5.33788914198934 17.1662414965986  5.28018223234625 16.7911807580174  5.28018223234625 16.3151421282798  C 5.28018223234625 16.026633867833  5.35952923310555 15.6732112487853  5.51822323462412 15.2548742711372  C 5.67691723614274 14.8365372934886  5.85003796507218 14.5119655004858  6.03758542141233 14.2811588921281  C 6.0231586940015 13.9637998056364  6.07725892179195 13.5815263605441  6.19988610478362 13.1343385568514  C 6.32251328777525 12.6871507531584  6.48481397114654 12.3770043731777  6.6867881548975 12.2038994169097  C 6.6867881548975 10.1987670068027  7.35402429764616 8.11790117832857  8.68849658314349 5.96130193148679  C 10.0229688686408 3.80470268464546  11.5918754745634 2.29364067055394  13.3952164009112 1.4281158892129  C 15.4005315110098 0.476038629737559  17.7376613515565 0  20.4066059225513 0  C 22.3253606681853 0  24.2441154138193 0.396698858114632  26.1628701594533 1.19009657434412  C 26.8697798025816 1.49303024781329  27.5189825360668 1.83924016034985  28.1104783599089 2.22872631195355  C 28.701974183751 2.6182124635568  29.2141230068337 3.02212402818282  29.6469248291572 3.44046100583114  C 30.0797266514806 3.85879798347901  30.4764616552771 4.3492620262391  30.8371298405467 4.91185313411074  C 31.1977980258162 5.47444424198261  31.5007593014427 6.00818452380963  31.746013667426 6.51307397959181  C 31.9912680334093 7.01796343537399  32.2257023538345 7.6274371355687  32.4493166287016 8.34149508017504  C 32.6729309035687 9.05555302478137  32.8568716780562 9.70109025753163  33.001138952164 10.2781067784256  C 33.1454062262718 10.8551232993198  33.3041002277904 11.5619685374152  33.4772209567198 12.3986424927114  L 33.498861047836 12.5068330903789  C 34.292331055429 13.7041423712344  34.6890660592255 14.7860483479108  34.6890660592255 15.7525510204082  C 34.6890660592255 15.9545068027212  34.624145785877 16.2430150631681  34.4943052391799 16.6180758017492  C 34.3644646924829 16.9931365403306  34.2995444191344 17.2672193877549  34.2995444191344 17.4403243440233  C 34.2995444191344 17.4547497570459  34.3103644646925 17.4799942298346  34.3320045558086 17.5160577623906  C 34.3536446469248 17.5521212949466  34.3788914198937 17.5881848275023  34.4077448747153 17.6242483600586  C 34.4365983295368 17.6603118926141  34.4510250569476 17.6855563654033  34.4510250569476 17.6999817784256  C 35.5618830675778 19.3444788629738  36.4310933940774 20.8916044096211  37.0586560364465 22.3413584183675  C 37.6862186788155 23.7911124271136  38 25.2949617346937  38 26.8529063411079  C 38 27.473199101069  37.8593394077449 28.1944697521867  37.5780182232346 29.0167182944606  C 37.2966970387244 29.8389668367345  36.8963553530752 30.2500911078719  36.376993166287 30.2500911078719  C 36.24715261959 30.2500911078719  36.1064920273349 30.1959958090381  35.9550113895216 30.0878052113703  C 35.8035307517084 29.9796146137026  35.666476841306 29.8533922497572  35.5438496583144 29.7091381195337  C 35.4212224753227 29.5648839893101  35.2841685649203 29.3773536200197  35.1326879271071 29.1465470116618  C 34.9812072892939 28.9157404033044  34.8657934700076 28.724603680758  34.7864464692483 28.5731368440231  C 34.707099468489 28.4216700072886  34.6097190584662 28.2341396379982  34.4943052391799 28.0105457361515  C 34.3788914198937 27.7869518343052  34.3139711465452 27.6607294703595  34.2995444191344 27.6318786443148  C 34.2851176917236 27.6174532312923  34.2634776006075 27.6102405247814  34.2346241457859 27.6102405247814  L 34.126423690205 27.6967930029152  C 33.2752467729688 29.9183066083579  32.3230827638573 31.5267401603498  31.2699316628702 32.5220936588919  C 31.5584662110858 32.8106019193394  32.0020880789673 33.0882911200197  32.6007972665148 33.3551612609331  C 33.1995064540623 33.6220314018465  33.6972285497342 33.9213587220604  34.0939635535308 34.2531432215744  C 34.4906985573272 34.5849277210884  34.7467729688687 35.0537536443148  34.8621867881549 35.6596209912536  C 34.8333333333333 35.7173226433429  34.8044798785118 35.8327259475218  34.7756264236902 36.00583090379  C 34.7467729688687 36.1789358600586  34.6962794229309 36.3087645772594  34.624145785877 36.3953170553937  C 33.700835231587 37.7945821185617  31.5223993925588 38.4942146501458  28.0888382687927 38.4942146501458  C 27.3242217160213 38.4942146501458  26.5271450265756 38.4293002915451  25.6976082004556 38.2994715743441  C 24.8680713743356 38.1696428571429  24.1611617312073 38.0253887269193  23.5768792710706 37.8667091836735  C 22.9925968109339 37.7080296404276  22.2388003037206 37.4916484450923  21.3154897494305 37.2175655976675  C 21.0990888382688 37.145438532556  20.9331814730448 37.0949495869777  20.8177676537586 37.0660987609331  C 20.6157934700076 37.0083971088434  20.2839787395596 36.9759399295433  19.8223234624145 36.9687272230321  C 19.3606681852695 36.961514516521  19.0721336370539 36.9506954567541  18.9567198177676 36.9362700437318  C 18.3652239939256 37.5854136297376  17.4455201214882 38.0542395529642  16.1976082004556 38.3427478134111  C 14.949696279423 38.6312560738581  13.7342444950645 38.7755102040817  12.5512528473804 38.7755102040817  C 12.046317388003 38.7755102040817  11.548595292331 38.7646911443148  11.0580865603644 38.7430530247814  C 10.5675778283979 38.7214149052479  9.89673500379655 38.6565005466473  9.04555808656036 38.5483099489798  C 8.19438116932423 38.440119351312  7.46583143507974 38.292258867833  6.85990888382688 38.1047284985423  C 6.25398633257407 37.9171981292518  5.71659073652242 37.6286898688047  5.247722095672 37.2392037172012  C 4.77885345482159 36.8497175655975  4.54441913439638 36.3881043488823  4.54441913439638 35.8543640670555  C 4.54441913439638 35.2773475461613  4.61655277145024 34.8481915087464  4.76082004555809 34.5668959548104  C 4.90508731966591 34.2856004008747  5.20083523158695 33.9357841350827  5.64806378132116 33.5174471574344  C 5.80675778283975 33.4885963313898  6.09889901290816 33.3948311467445  6.52448747152616 33.2361516034987  C 6.95007593014429 33.0774720602528  7.30713743356108 32.9909195821185  7.59567198177675 32.9764941690962  C 7.65337889141992 32.9764941690962  7.7543659832954 32.9620687560739  7.89863325740316 32.9332179300293  C 7.92748671222475 32.9043671039842  7.94191343963558 32.8755162779396  7.94191343963558 32.846665451895  L 7.89863325740316 32.7817510932946  C 7.20615034168563 32.6230715500487  6.42710706150342 31.8621310131196  5.56150341685651 30.4989294825073  C 4.69589977220957 29.135727951895  4.16932422171604 28.006939382896  3.98177676537588 27.1125637755101  L 3.873576309795 27.0476494169097  C 3.81586940015183 27.0476494169097  3.72930903568718 27.1919035471331  3.61389521640092 27.4804118075804  C 3.35421412300684 28.0718537414966  2.96108580106301 28.6092003765791  2.4345102505695 29.0924517128281  C 1.90793470007591 29.575703049077  1.34889901290816 29.8461795432459  0.757403189066082 29.9038811953351  L 0.735763097949871 29.9038811953351  C 0.678056188306755 29.9038811953351  0.634776006074418 29.871424016035  0.60592255125286 29.8065096574344  C 0.577069096431302 29.7415952988338  0.54100227790434 29.7019254130225  0.497722095672003 29.6875  C 0.165907365224001 28.908527696793  0 28.1872570456753  0 27.5236880466473  Z " fill-rule="nonzero" fill="#ffffff" stroke="none" transform="matrix(1 0 0 1 334 2434 )" />
  </g>
</svg>