<?xml version="1.0" encoding="utf-8"?>
<svg version="1.1" xmlns:xlink="http://www.w3.org/1999/xlink" width="40px" height="39px" xmlns="http://www.w3.org/2000/svg">
  <g transform="matrix(1 0 0 1 -154 -2520 )">
    <path d="M 38.6538461538462 13.76786389414  C 39.551282051282 13.913043478261  40 14.2840579710146  40 14.8809073724008  C 40 15.2357908002521  39.7916666666667 15.622936357908  39.375 16.0423440453687  L 30.6490384615385 24.6079395085067  L 32.7163461538462 36.7062381852552  C 32.7323717948718 36.8191556395716  32.7403846153846 36.9804662885949  32.7403846153846 37.1901701323252  C 32.7403846153846 37.5289224952742  32.65625 37.8152488972905  32.4879807692308 38.0491493383743  C 32.3197115384615 38.2830497794582  32.0753205128205 38.4000000000001  31.7548076923077 38.4000000000001  C 31.4503205128205 38.4000000000001  31.1298076923077 38.303213610586  30.7932692307692 38.109640831758  L 20 32.3992438563328  L 9.20673076923077 38.109640831758  C 8.85416666666667 38.303213610586  8.53365384615384 38.4000000000001  8.24519230769231 38.4000000000001  C 7.90865384615385 38.4000000000001  7.65625 38.2830497794582  7.48798076923077 38.0491493383743  C 7.31971153846154 37.8152488972905  7.23557692307692 37.5289224952742  7.23557692307692 37.1901701323252  C 7.23557692307692 37.0933837429113  7.25160256410256 36.932073093888  7.28365384615385 36.7062381852552  L 9.35096153846153 24.6079395085067  L 0.60096153846154 16.0423440453687  C 0.200320512820511 15.6068052930057  0 15.2196597353498  0 14.8809073724008  C 0 14.2840579710146  0.448717948717949 13.913043478261  1.34615384615385 13.76786389414  L 13.4134615384615 12.0015122873347  L 18.8221153846154 0.992060491493476  C 19.1266025641026 0.330686830497825  19.5192307692308 0  20 0  C 20.4807692307692 0  20.8733974358974 0.330686830497825  21.1778846153846 0.992060491493476  L 26.5865384615385 12.0015122873347  L 38.6538461538462 13.76786389414  Z " fill-rule="nonzero" fill="#ffffff" stroke="none" transform="matrix(1 0 0 1 154 2520 )" />
  </g>
</svg>