<?xml version="1.0" encoding="utf-8"?>
<svg version="1.1" xmlns:xlink="http://www.w3.org/1999/xlink" width="40px" height="37px" xmlns="http://www.w3.org/2000/svg">
  <g transform="matrix(1 0 0 1 -244 -2522 )">
    <path d="M 30.3125 33.278125  C 30.6169871794872 32.9746527777777  30.7692307692308 32.6152777777777  30.7692307692308 32.2  C 30.7692307692308 31.7847222222222  30.6169871794872 31.4253472222222  30.3125 31.121875  C 30.0080128205128 30.8184027777777  29.6474358974359 30.6666666666665  29.2307692307692 30.6666666666665  C 28.8141025641026 30.6666666666665  28.4535256410256 30.8184027777777  28.1490384615385 31.121875  C 27.8445512820513 31.4253472222222  27.6923076923077 31.7847222222222  27.6923076923077 32.2  C 27.6923076923077 32.6152777777777  27.8445512820513 32.9746527777777  28.1490384615385 33.278125  C 28.4535256410256 33.5815972222222  28.8141025641026 33.7333333333333  29.2307692307692 33.7333333333333  C 29.6474358974359 33.7333333333333  30.0080128205128 33.5815972222222  30.3125 33.278125  Z M 36.4663461538462 33.278125  C 36.7708333333333 32.9746527777777  36.9230769230769 32.6152777777777  36.9230769230769 32.2  C 36.9230769230769 31.7847222222222  36.7708333333333 31.4253472222222  36.4663461538462 31.121875  C 36.161858974359 30.8184027777777  35.801282051282 30.6666666666665  35.3846153846154 30.6666666666665  C 34.9679487179487 30.6666666666665  34.6073717948718 30.8184027777777  34.3028846153846 31.121875  C 33.9983974358974 31.4253472222222  33.8461538461538 31.7847222222222  33.8461538461538 32.2  C 33.8461538461538 32.6152777777777  33.9983974358974 32.9746527777777  34.3028846153846 33.278125  C 34.6073717948718 33.5815972222222  34.9679487179487 33.7333333333333  35.3846153846154 33.7333333333333  C 35.801282051282 33.7333333333333  36.161858974359 33.5815972222222  36.4663461538462 33.278125  Z M 39.3269230769231 25.2041666666667  C 39.775641025641 25.651388888889  40 26.1944444444443  40 26.8333333333333  L 40 34.5  C 40 35.1388888888889  39.775641025641 35.6819444444443  39.3269230769231 36.1291666666666  C 38.8782051282051 36.5763888888889  38.3333333333333 36.8  37.6923076923077 36.8  L 2.30769230769232 36.8  C 1.66666666666666 36.8  1.12179487179486 36.5763888888889  0.673076923076934 36.1291666666666  C 0.224358974358978 35.6819444444443  0 35.1388888888889  0 34.5  L 0 26.8333333333333  C 0 26.1944444444443  0.224358974358978 25.651388888889  0.673076923076934 25.2041666666667  C 1.12179487179486 24.7569444444443  1.66666666666666 24.5333333333333  2.30769230769232 24  L 13.4855769230769 24  L 16.7307692307692 27.7916666666667  C 17.6602564102564 28.6861111111111  18.75 29.1333333333332  20 29.1333333333332  C 21.25 29.1333333333332  22.3397435897436 28.6861111111111  23.2692307692308 27.7916666666667  L 26.5384615384615 24  L 37.6923076923077 24  C 38.3333333333333 24.5333333333333  38.8782051282051 24.7569444444443  39.3269230769231 25.2041666666667  Z M 30.7692307692308 12.2666666666667  C 31.4423076923077 12.2666666666667  31.9150641025641 12.578125  32.1875 13.2010416666667  C 32.4599358974359 13.8559027777778  32.3477564102564 14.4149305555554  31.8509615384615 14.878125  L 21.0817307692308 25.6114583333333  C 20.7932692307692 25.9149305555554  20.4326923076923 26.0666666666666  20 26.0666666666666  C 19.5673076923077 26.0666666666666  19.2067307692308 25.9149305555554  18.9182692307692 25.6114583333333  L 8.14903846153845 14.878125  C 7.65224358974359 14.4149305555554  7.54006410256412 13.8559027777778  7.8125 13.2010416666667  C 8.08493589743591 12.578125  8.55769230769232 12.2666666666667  9.23076923076923 12.2666666666667  L 16 12.2666666666667  L 16 1.5333333333333  C 15.3846153846154 1.11805555555566  15.536858974359 0.758680555555657  15.8413461538462 0.455208333333303  C 16.1458333333333 0.151736111111177  16.5064102564102 0  16.9230769230769 0  L 23.0769230769231 0  C 23.4935897435898 0  23.8541666666667 0.151736111111177  24.1586538461538 0.455208333333303  C 24.463141025641 0.758680555555657  24.6153846153846 1.11805555555566  24 1.5333333333333  L 24 12.2666666666667  L 30.7692307692308 12.2666666666667  Z " fill-rule="nonzero" fill="#ffffff" stroke="none" transform="matrix(1 0 0 1 244 2522 )" />
  </g>
</svg>