<?xml version="1.0" encoding="utf-8"?>
<svg version="1.1" xmlns:xlink="http://www.w3.org/1999/xlink" width="15px" height="26px" xmlns="http://www.w3.org/2000/svg">
  <g transform="matrix(1 0 0 1 -1117 -163 )">
    <path d="M 14.742268041237 1.5548338055421  C 14.914089347079 1.72759311726901  15 1.92626632575497  15 2.15085343099992  C 15 2.37544053624489  14.914089347079 2.57411374473082  14.742268041237 2.74687305645776  L 4.61340206185571 12.9310344827586  L 14.742268041237 23.1151959090595  C 14.914089347079 23.2879552207864  15 23.4866284292723  15 23.7112155345173  C 15 23.9358026397623  14.914089347079 24.1344758482482  14.742268041237 24.3072351599751  L 13.4536082474227 25.6029299979269  C 13.2817869415808 25.7756893096538  13.0841924398626 25.8620689655172  12.8608247422681 25.8620689655172  C 12.6374570446735 25.8620689655172  12.4398625429553 25.7756893096538  12.2680412371134 25.6029299979269  L 0.257731958762975 13.5270541082164  C 0.0859106529210294 13.3542947964895  0 13.1556215880036  0 12.9310344827586  C 0 12.7064473775137  0.0859106529210294 12.5077741690277  0.257731958762975 12.3350148573008  L 12.2680412371134 0.25913896759036  C 12.4398625429553 0.0863796558634817  12.6374570446735 0  12.8608247422681 0  C 13.0841924398626 0  13.2817869415808 0.0863796558634817  13.4536082474227 0.25913896759036  L 14.742268041237 1.5548338055421  Z " fill-rule="nonzero" fill="#ffffff" stroke="none" transform="matrix(1 0 0 1 1117 163 )" />
  </g>
</svg>