<?xml version="1.0" encoding="utf-8"?>
<svg version="1.1" xmlns:xlink="http://www.w3.org/1999/xlink" width="25px" height="25px" xmlns="http://www.w3.org/2000/svg">
  <g transform="matrix(1 0 0 1 -1117 -1078 )">
    <path d="M 7.64508928571431 0.99051339285711  C 9.1889880952381 0.33017113095238  10.8072916666667 0  12.5 0  C 14.1927083333333 0  15.8110119047619 0.33017113095238  17.3549107142857 0.99051339285711  C 18.8988095238095 1.6508556547619  20.2287946428571 2.5390625  21.3448660714286 3.65513392857142  C 22.4609375 4.77120535714289  23.3491443452381 6.10119047619048  24.0094866071429 7.64508928571431  C 24.6698288690476 9.1889880952381  25 10.8072916666667  25 12.5  C 25 14.1834077380952  24.6721540178571 15.7970610119048  24.0164620535714 17.3409598214286  C 23.3607700892857 18.8848586309524  22.4748883928571 20.21484375  21.3588169642857 21.3309151785714  C 20.2427455357143 22.4469866071429  18.9127604166667 23.3375186011905  17.3688616071429 24.0025111607143  C 15.824962797619 24.6675037202381  14.2020089285714 25  12.5 25  C 10.7979910714286 25  9.17503720238099 24.6698288690476  7.63113839285712 24.0094866071429  C 6.08723958333332 23.3491443452381  4.75957961309522 22.4586123511905  3.64815848214288 21.337890625  C 2.53673735119047 20.2171688988095  1.6508556547619 18.8871837797619  0.990513392857117 17.3479352678571  C 0.330171130952372 15.8086867559524  0 14.1927083333333  0 12.5  C 0 10.8072916666667  0.330171130952372 9.1889880952381  0.990513392857117 7.64508928571431  C 1.6508556547619 6.10119047619048  2.5390625 4.77120535714289  3.65513392857142 3.65513392857142  C 4.77120535714288 2.5390625  6.10119047619047 1.6508556547619  7.64508928571431 0.99051339285711  Z M 16.8666294642857 14.2857142857143  C 19.0987723214286 14.2857142857143  20.5217633928571 15.8063616071429  21.1356026785714 18.84765625  C 22.5213913690476 16.9410342261905  23.2142857142857 14.8251488095238  23.2142857142857 12.5  C 23.2142857142857 11.0491071428571  22.9306175595238 9.66331845238099  22.36328125 8.34263392857142  C 21.7959449404762 7.0219494047619  21.0332961309524 5.88262648809521  20.0753348214286 4.92466517857142  C 19.1173735119048 3.96670386904762  17.9780505952381 3.2040550595238  16.6573660714286 2.63671875  C 15.336681547619 2.0693824404762  13.9508928571429 1.78571428571431  12.5 1.78571428571431  C 11.0491071428571 1.78571428571431  9.66331845238099 2.0693824404762  8.34263392857142 2.63671875  C 7.0219494047619 3.2040550595238  5.88262648809522 3.96670386904762  4.92466517857142 4.92466517857142  C 3.96670386904763 5.88262648809521  3.2040550595238 7.0219494047619  2.63671875 8.34263392857142  C 2.0693824404762 9.66331845238099  1.78571428571431 11.0491071428571  1.78571428571431 12.5  C 1.78571428571431 14.8251488095238  2.47860863095237 16.9410342261905  3.86439732142858 18.84765625  C 4.47823660714288 15.8063616071429  5.90122767857142 14.2857142857143  8.13337053571431 14.2857142857143  C 9.35174851190479 15.4761904761905  10.8072916666667 16.0714285714286  12.5 16.0714285714286  C 14.1927083333333 16.0714285714286  15.6482514880952 15.4761904761905  16.8666294642857 14.2857142857143  Z M 16.2876674107143 13.6090959821429  C 17.333984375 12.5627790178571  17.8571428571429 11.3002232142857  17.8571428571429 9.82142857142858  C 17.8571428571429 8.34263392857142  17.333984375 7.080078125  16.2876674107143 6.03376116071431  C 15.2413504464286 4.98744419642858  13.9787946428571 4.46428571428569  12.5 4.46428571428569  C 11.0212053571429 4.46428571428569  9.75864955357142 4.98744419642858  8.71233258928569 6.03376116071431  C 7.666015625 7.080078125  7.14285714285712 8.34263392857142  7.14285714285712 9.82142857142858  C 7.14285714285712 11.3002232142857  7.666015625 12.5627790178571  8.71233258928569 13.6090959821429  C 9.75864955357142 14.6554129464286  11.0212053571429 15.1785714285714  12.5 15.1785714285714  C 13.9787946428571 15.1785714285714  15.2413504464286 14.6554129464286  16.2876674107143 13.6090959821429  Z " fill-rule="nonzero" fill="#ffffff" stroke="none" transform="matrix(1 0 0 1 1117 1078 )" />
  </g>
</svg>