<?xml version="1.0" encoding="utf-8"?>
<svg version="1.1" xmlns:xlink="http://www.w3.org/1999/xlink" width="20px" height="17px" xmlns="http://www.w3.org/2000/svg">
  <g transform="matrix(1 0 0 1 -1205 -1312 )">
    <path d="M 6.72433035714286 8.15441860465114  C 7.00334821428572 7.87534883720934  7.14285714285714 7.53860465116281  7.14285714285714 7.14418604651166  C 7.14285714285714 6.74976744186046  7.00334821428572 6.41302325581398  6.72433035714286 6.13395348837207  C 6.4453125 5.85488372093027  6.10863095238096 5.71534883720932  5.71428571428572 5.71534883720932  C 5.31994047619048 5.71534883720932  4.98325892857142 5.85488372093027  4.70424107142858 6.13395348837207  C 4.42522321428572 6.41302325581398  4.28571428571428 6.74976744186046  4.28571428571428 7.14418604651166  C 4.28571428571428 7.53860465116281  4.42522321428572 7.87534883720934  4.70424107142858 8.15441860465114  C 4.98325892857142 8.43348837209305  5.31994047619048 8.57302325581395  5.71428571428572 8.57302325581395  C 6.10863095238096 8.57302325581395  6.4453125 8.43348837209305  6.72433035714286 8.15441860465114  Z M 11.0100446428571 8.15441860465114  C 11.2890625 7.87534883720934  11.4285714285714 7.53860465116281  11.4285714285714 7.14418604651166  C 11.4285714285714 6.74976744186046  11.2890625 6.41302325581398  11.0100446428571 6.13395348837207  C 10.7310267857143 5.85488372093027  10.3943452380952 5.71534883720932  10 5.71534883720932  C 9.60565476190476 5.71534883720932  9.26897321428572 5.85488372093027  8.98995535714286 6.13395348837207  C 8.7109375 6.41302325581398  8.57142857142858 6.74976744186046  8.57142857142858 7.14418604651166  C 8.57142857142858 7.53860465116281  8.7109375 7.87534883720934  8.98995535714286 8.15441860465114  C 9.26897321428572 8.43348837209305  9.60565476190476 8.57302325581395  10 8.57302325581395  C 10.3943452380952 8.57302325581395  10.7310267857143 8.43348837209305  11.0100446428571 8.15441860465114  Z M 15.2957589285714 8.15441860465114  C 15.5747767857143 7.87534883720934  15.7142857142857 7.53860465116281  15.7142857142857 7.14418604651166  C 15.7142857142857 6.74976744186046  15.5747767857143 6.41302325581398  15.2957589285714 6.13395348837207  C 15.0167410714286 5.85488372093027  14.6800595238095 5.71534883720932  14.2857142857143 5.71534883720932  C 13.891369047619 5.71534883720932  13.5546875 5.85488372093027  13.2756696428571 6.13395348837207  C 12.9966517857143 6.41302325581398  12.8571428571429 6.74976744186046  12.8571428571429 7.14418604651166  C 12.8571428571429 7.53860465116281  12.9966517857143 7.87534883720934  13.2756696428571 8.15441860465114  C 13.5546875 8.43348837209305  13.891369047619 8.57302325581395  14.2857142857143 8.57302325581395  C 14.6800595238095 8.57302325581395  15.0167410714286 8.43348837209305  15.2957589285714 8.15441860465114  Z M 18.6607142857143 3.55534883720929  C 19.5535714285714 4.65302325581399  20 5.84930232558139  20 7.14418604651166  C 20 8.43906976744188  19.5535714285714 9.63534883720934  18.6607142857143 10.733023255814  C 17.7678571428571 11.8306976744186  16.5550595238095 12.6976744186047  15.0223214285714 13.3339534883721  C 13.4895833333333 13.9702325581395  11.8154761904762 14.2883720930233  10 14.2883720930233  C 9.18154761904762 14.2883720930233  8.39657738095238 14.2213953488372  7.64508928571428 14.0874418604651  C 6.3578869047619 15.3748837209303  4.73958333333334 16.2269767441861  2.79017857142858 16.6437209302326  C 2.4032738095238 16.7181395348837  2.08333333333334 16.766511627907  1.83035714285714 16.7888372093023  C 1.74107142857142 16.7962790697675  1.6592261904762 16.7739534883721  1.58482142857142 16.7218604651163  C 1.51041666666666 16.6697674418605  1.46205357142858 16.6027906976744  1.43973214285714 16.5209302325582  C 1.40997023809524 16.4093023255814  1.484375 16.2716279069767  1.66294642857142 16.1079069767442  C 1.7001488095238 16.0706976744186  1.7875744047619 15.9906976744186  1.92522321428572 15.8679069767442  C 2.06287202380952 15.7451162790697  2.1577380952381 15.6576744186046  2.20982142857142 15.6055813953488  C 2.26190476190476 15.5534883720931  2.34933035714286 15.4586046511628  2.47209821428572 15.3209302325581  C 2.59486607142858 15.1832558139535  2.68415178571428 15.0660465116279  2.73995535714286 14.9693023255814  C 2.79575892857142 14.8725581395349  2.8720238095238 14.7348837209303  2.96875 14.5562790697675  C 3.0654761904762 14.3776744186047  3.13988095238096 14.1990697674419  3.19196428571428 14.0204651162791  C 3.24404761904762 13.8418604651163  3.29799107142858 13.6279069767442  3.35379464285714 13.3786046511628  C 3.40959821428572 13.1293023255814  3.4561011904762 12.8595348837209  3.49330357142858 12.5693023255814  C 2.40699404761904 11.8995348837209  1.5531994047619 11.0939534883721  0.931919642857139 10.1525581395349  C 0.31063988095238 9.2111627906977  0 8.20837209302329  0 7.14418604651166  C 0 5.84930232558139  0.446428571428584 4.65302325581399  1.33928571428572 3.55534883720929  C 2.23214285714286 2.45767441860465  3.44494047619048 1.59069767441861  4.97767857142858 0.954418604651153  C 6.51041666666666 0.318139534883699  8.1845238095238 0  10 0  C 11.8154761904762 0  13.4895833333333 0.318139534883699  15.0223214285714 0.954418604651153  C 16.5550595238095 1.59069767441861  17.7678571428571 2.45767441860465  18.6607142857143 3.55534883720929  Z " fill-rule="nonzero" fill="#ffffff" stroke="none" transform="matrix(1 0 0 1 1205 1312 )" />
  </g>
</svg>