<?xml version="1.0" encoding="utf-8"?>
<svg version="1.1" xmlns:xlink="http://www.w3.org/1999/xlink" width="20px" height="18px" xmlns="http://www.w3.org/2000/svg">
  <g transform="matrix(1 0 0 1 -1284 -1313 )">
    <path d="M 19.7879464285714 5.97375  C 19.9293154761905 6.11624999999998  20 6.28500000000003  20 6.48000000000002  C 20 6.67500000000001  19.9293154761905 6.84375  19.7879464285714 6.98624999999998  L 14.0736607142857 12.74625  C 13.9322916666667 12.88875  13.764880952381 12.96  13.5714285714286 12.96  C 13.3779761904762 12.96  13.2105654761905 12.88875  13.0691964285714 12.74625  C 12.9278273809524 12.60375  12.8571428571429 12.435  12.8571428571429 12.24  L 12.8571428571429 9.36000000000001  L 10.3571428571429 9.36000000000001  C 9.6279761904762 9.36000000000001  8.9750744047619 9.38249999999999  8.3984375 9.42750000000001  C 7.8218005952381 9.47250000000003  7.24888392857142 9.55312500000002  6.6796875 9.669375  C 6.11049107142858 9.78562499999998  5.6156994047619 9.94499999999999  5.1953125 10.1475  C 4.7749255952381 10.35  4.38244047619048 10.610625  4.01785714285714 10.929375  C 3.6532738095238 11.248125  3.35565476190476 11.626875  3.125 12.065625  C 2.89434523809524 12.504375  2.7139136904762 13.02375  2.58370535714286 13.62375  C 2.45349702380952 14.22375  2.38839285714286 14.9025  2.38839285714286 15.66  C 2.38839285714286 16.0725  2.40699404761904 16.53375  2.44419642857142 17.04375  C 2.44419642857142 17.08875  2.45349702380952 17.176875  2.47209821428572 17.308125  C 2.4906994047619 17.439375  2.5 17.53875  2.5 17.60625  C 2.5 17.71875  2.46837797619048 17.8125  2.40513392857142 17.8875  C 2.34188988095238 17.9625  2.25446428571428 18  2.14285714285714 18  C 2.02380952380952 18  1.91964285714286 17.93625  1.83035714285714 17.80875  C 1.7782738095238 17.74125  1.72991071428572 17.65875  1.68526785714286 17.56125  C 1.640625 17.46375  1.59040178571428 17.35125  1.53459821428572 17.22375  C 1.47879464285714 17.09625  1.43973214285714 17.00625  1.41741071428572 16.95375  C 0.472470238095241 14.81625  0 13.125  0 11.88  C 0 10.3875  0.19717261904762 9.13875000000002  0.591517857142861 8.13375000000002  C 1.796875 5.11124999999998  5.05208333333334 3.60000000000002  10.3571428571429 3.60000000000002  L 12.8571428571429 3.60000000000002  L 12.8571428571429 0.720000000000027  C 12.8571428571429 0.524999999999977  12.9278273809524 0.356249999999989  13.0691964285714 0.213750000000005  C 13.2105654761905 0.0712500000000205  13.3779761904762 0  13.5714285714286 0  C 13.764880952381 0  13.9322916666667 0.0712500000000205  14.0736607142857 0.213750000000005  L 19.7879464285714 5.97375  Z " fill-rule="nonzero" fill="#ffffff" stroke="none" transform="matrix(1 0 0 1 1284 1313 )" />
  </g>
</svg>