<?xml version="1.0" encoding="utf-8"?>
<svg version="1.1" xmlns:xlink="http://www.w3.org/1999/xlink" width="26px" height="26px" xmlns="http://www.w3.org/2000/svg">
  <g transform="matrix(1 0 0 1 -929 -2041 )">
    <path d="M 25.416015625 15.3274739583333  C 25.5232204861111 15.4346788194444  25.5768229166667 15.5616319444444  25.5768229166667 15.7083333333333  C 25.5768229166667 15.7647569444444  25.5711805555555 15.8042534722222  25.5598958333333 15.8268229166667  C 24.8376736111111 18.8511284722222  23.3255208333333 21.302734375  21.0234375 23.181640625  C 18.7213541666667 25.060546875  16.0243055555555 26  12.9322916666667 26  C 11.2847222222222 26  9.69075520833331 25.6896701388889  8.150390625 25.0690104166667  C 6.61002604166668 24.4483506944444  5.23611111111109 23.5625  4.02864583333331 22.4114583333333  L 1.84505208333331 24.5950520833333  C 1.63064236111109 24.8094618055556  1.37673611111109 24.9166666666667  1.08333333333331 24.9166666666667  C 0.789930555555543 24.9166666666667  0.536024305555543 24.8094618055556  0.321614583333314 24.5950520833333  C 0.107204861111086 24.3806423611111  0 24.1267361111111  0 23.8333333333333  L 0 16.25  C 0 15.9565972222222  0.107204861111086 15.7026909722222  0.321614583333314 15.48828125  C 0.536024305555543 15.2738715277778  0.789930555555543 15.1666666666667  1.08333333333331 15.1666666666667  L 8.66666666666669 15.1666666666667  C 8.96006944444446 15.1666666666667  9.21397569444446 15.2738715277778  9.42838541666669 15.48828125  C 9.64279513888891 15.7026909722222  9.75 15.9565972222222  9.75 16.25  C 9.75 16.5434027777778  9.64279513888891 16.7973090277778  9.42838541666669 17.01171875  L 7.109375 19.3307291666667  C 7.91059027777777 20.0755208333333  8.81901041666669 20.6510416666667  9.83463541666669 21.0572916666667  C 10.8502604166667 21.4635416666667  11.9053819444445 21.6666666666667  13 21.6666666666667  C 14.5121527777778 21.6666666666667  15.9227430555555 21.2999131944444  17.2317708333333 20.56640625  C 18.5407986111111 19.8328993055556  19.5902777777778 18.8229166666667  20.3802083333333 17.5364583333333  C 20.5043402777778 17.3446180555556  20.8033854166667 16.6844618055556  21.27734375 15.5559895833333  C 21.3676215277778 15.2964409722222  21.5368923611111 15.1666666666667  21.78515625 15.1666666666667  L 25.03515625 15.1666666666667  C 25.1818576388889 15.1666666666667  25.3088107638889 15.2202690972222  25.416015625 15.3274739583333  Z M 25.6783854166667 1.40494791666667  C 25.8927951388889 1.61935763888889  26 1.87326388888889  26 2.16666666666667  L 26 9.75  C 26 10.0434027777778  25.8927951388889 10.2973090277778  25.6783854166667 10.51171875  C 25.4639756944445 10.7261284722222  25.2100694444445 10.8333333333333  24.9166666666667 10.8333333333333  L 17.3333333333333 10.8333333333333  C 17.0399305555555 10.8333333333333  16.7860243055555 10.7261284722222  16.5716145833333 10.51171875  C 16.3572048611111 10.2973090277778  16.25 10.0434027777778  16.25 9.75  C 16.25 9.45659722222221  16.3572048611111 9.20269097222221  16.5716145833333 8.98828125  L 18.9075520833333 6.65234375  C 17.2374131944445 5.10633680555556  15.2682291666667 4.33333333333333  13 4.33333333333333  C 11.4878472222222 4.33333333333333  10.0772569444445 4.70008680555556  8.76822916666669 5.43359375  C 7.45920138888892 6.16710069444444  6.40972222222223 7.17708333333333  5.61979166666669 8.46354166666667  C 5.49565972222223 8.65538194444444  5.19661458333331 9.31553819444444  4.72265625 10.4440104166667  C 4.63237847222223 10.7035590277778  4.46310763888891 10.8333333333333  4.21484375 10.8333333333333  L 0.846354166666686 10.8333333333333  C 0.699652777777771 10.8333333333333  0.572699652777771 10.7797309027778  0.465494791666686 10.6725260416667  C 0.358289930555543 10.5653211805556  0.3046875 10.4383680555556  0.3046875 10.2916666666667  L 0.3046875 10.1731770833333  C 1.03819444444446 7.14887152777777  2.56163194444446 4.697265625  4.875 2.818359375  C 7.18836805555554 0.939453125  9.89670138888891 0  13 0  C 14.6475694444445 0  16.25 0.313151041666671  17.8072916666667 0.939453125  C 19.3645833333333 1.56575520833333  20.7469618055555 2.44878472222221  21.9544270833333 3.58854166666667  L 24.1549479166667 1.40494791666667  C 24.3693576388889 1.19053819444444  24.6232638888889 1.08333333333333  24.9166666666667 1.08333333333333  C 25.2100694444445 1.08333333333333  25.4639756944445 1.19053819444444  25.6783854166667 1.40494791666667  Z " fill-rule="nonzero" fill="#ffffff" stroke="none" transform="matrix(1 0 0 1 929 2041 )" />
  </g>
</svg>