<?xml version="1.0" encoding="utf-8"?>
<svg version="1.1" xmlns:xlink="http://www.w3.org/1999/xlink" width="12px" height="21px" xmlns="http://www.w3.org/2000/svg">
  <g transform="matrix(1 0 0 1 -1116 -2958 )">
    <path d="M 11.7938144329897 1.24386704443369  C 11.9312714776632 1.38207449381522  12 1.54101306060397  12 1.72068274479994  C 12 1.90035242899593  11.9312714776632 2.05929099578468  11.7938144329897 2.19749844516619  L 3.69072164948453 10.3448275862069  L 11.7938144329897 18.4921567272476  C 11.9312714776632 18.6303641766291  12 18.7893027434179  12 18.9689724276139  C 12 19.1486421118098  11.9312714776632 19.3075806785986  11.7938144329897 19.4457881279801  L 10.7628865979381 20.4823439983415  C 10.6254295532646 20.620551447723  10.46735395189 20.6896551724138  10.2886597938144 20.6896551724138  C 10.1099656357388 20.6896551724138  9.95189003436427 20.620551447723  9.81443298969073 20.4823439983415  L 0.206185567010309 10.8216432865731  C 0.0687285223367695 10.6834358371916  0 10.5244972704029  0 10.3448275862069  C 0 10.1651579020109  0.0687285223367695 10.0062193352222  0.206185567010309 9.86801188584066  L 9.81443298969073 0.207311174072274  C 9.95189003436427 0.0691037246907626  10.1099656357388 0  10.2886597938144 0  C 10.46735395189 0  10.6254295532646 0.0691037246907626  10.7628865979381 0.207311174072274  L 11.7938144329897 1.24386704443369  Z " fill-rule="nonzero" fill="#ffffff" stroke="none" transform="matrix(1 0 0 1 1116 2958 )" />
  </g>
</svg>