<?xml version="1.0" encoding="utf-8"?>
<svg version="1.1" xmlns:xlink="http://www.w3.org/1999/xlink" width="10px" height="18px" xmlns="http://www.w3.org/2000/svg">
  <g transform="matrix(1 0 0 1 -2377 -3148 )">
    <path d="M 9.82817869415805 1.53655587036138  C 9.94272623138602 1.65172874484602  10 1.78417755050333  10 1.9339022873333  C 10 2.08362702416326  9.94272623138602 2.21607582982057  9.82817869415805 2.33124870430515  L 3.07560137457045 9.12068965517238  L 9.82817869415805 15.9101306060396  C 9.94272623138602 16.0253034805242  10 16.1577522861815  10 16.3074770230115  C 10 16.4572017598415  9.94272623138602 16.5896505654988  9.82817869415805 16.7048234399834  L 8.96907216494844 17.5686199986179  C 8.85452462772048 17.6837928731024  8.72279495990836 17.7413793103448  8.57388316151201 17.7413793103448  C 8.42497136311567 17.7413793103448  8.29324169530355 17.6837928731024  8.17869415807559 17.5686199986179  L 0.171821305841945 9.51803607214424  C 0.0572737686139817 9.40286319765965  0 9.27041439200241  0 9.12068965517238  C 0 8.97096491834242  0.0572737686139817 8.83851611268511  0.171821305841945 8.72334323820053  L 8.17869415807559 0.672759311726907  C 8.29324169530355 0.557586437242321  8.42497136311567 0.5  8.57388316151201 0.5  C 8.72279495990836 0.5  8.85452462772048 0.557586437242321  8.96907216494844 0.672759311726907  L 9.82817869415805 1.53655587036138  Z " fill-rule="nonzero" fill="#666666" stroke="none" transform="matrix(1 0 0 1 2377 3148 )" />
  </g>
</svg>