<?xml version="1.0" encoding="utf-8"?>
<svg version="1.1" xmlns:xlink="http://www.w3.org/1999/xlink" width="12px" height="16px" xmlns="http://www.w3.org/2000/svg">
  <g transform="matrix(1 0 0 1 -131 -3340 )">
    <path d="M 11.6041666666667 7.10734577922079  C 11.8680555555556 7.30012175324674  12 7.52840909090907  12 7.79220779220782  C 12 8.05600649350652  11.8680555555556 8.28429383116884  11.6041666666667 8.47706980519484  L 2.27083333333333 15.2952516233767  C 2.00694444444444 15.4880275974026  1.69444444444444 15.5844155844156  1.33333333333333 15.5844155844156  C 0.972222222222229 15.5844155844156  0.659722222222229 15.4880275974026  0.395833333333329 15.2952516233767  C 0.131944444444443 15.1024756493507  0 14.8741883116883  0 14.6103896103896  L 0 0.974025974026006  C 0 0.710227272727252  0.131944444444443 0.481939935064929  0.395833333333329 0.289163961038923  C 0.659722222222229 0.0963879870129745  0.972222222222229 0  1.33333333333333 0  C 1.69444444444444 0  2.00694444444444 0.0963879870129745  2.27083333333333 0.289163961038923  L 11.6041666666667 7.10734577922079  Z " fill-rule="nonzero" fill="#ffffff" stroke="none" transform="matrix(1 0 0 1 131 3340 )" />
  </g>
</svg>