<?xml version="1.0" encoding="utf-8"?>
<svg version="1.1" xmlns:xlink="http://www.w3.org/1999/xlink" width="10px" height="22px" preserveAspectRatio="xMidYMin meet" viewBox="304 985  8 22" xmlns="http://www.w3.org/2000/svg">
  <path d="M 488 561  L 505 561  A 5 5 0 0 1 510 566 L 510 985  A 5 5 0 0 1 505 990 L 313 990  A 5 5 0 0 0 308 995 L 308 1005  " stroke-width="2" stroke="#f4d738" fill="none" />
  <path d="M 489.5 557.5  A 3.5 3.5 0 0 0 486 561 A 3.5 3.5 0 0 0 489.5 564.5 A 3.5 3.5 0 0 0 493 561 A 3.5 3.5 0 0 0 489.5 557.5 Z M 308 1000  A 3.5 3.5 0 0 0 304.5 1003.5 A 3.5 3.5 0 0 0 308 1007 A 3.5 3.5 0 0 0 311.5 1003.5 A 3.5 3.5 0 0 0 308 1000 Z " fill-rule="nonzero" fill="#f4d738" stroke="none" />
</svg>