<?xml version="1.0" encoding="utf-8"?>
<svg version="1.1" xmlns:xlink="http://www.w3.org/1999/xlink" width="130px" height="10px" preserveAspectRatio="xMinYMid meet" viewBox="305 1916  130 8" xmlns="http://www.w3.org/2000/svg">
  <path d="M 444 641  L 435 641  A 5 5 0 0 0 430 646 L 430 987  A 3 3 0 0 1 433 990 A 3 3 0 0 1 430 993 L 430 1915  A 5 5 0 0 1 425 1920 L 315 1920  A 5 5 0 0 0 310 1925 L 310 1931  " stroke-width="2" stroke="#f4d738" fill="none" />
  <path d="M 442.5 637.5  A 3.5 3.5 0 0 0 439 641 A 3.5 3.5 0 0 0 442.5 644.5 A 3.5 3.5 0 0 0 446 641 A 3.5 3.5 0 0 0 442.5 637.5 Z M 310 1926  A 3.5 3.5 0 0 0 306.5 1929.5 A 3.5 3.5 0 0 0 310 1933 A 3.5 3.5 0 0 0 313.5 1929.5 A 3.5 3.5 0 0 0 310 1926 Z " fill-rule="nonzero" fill="#f4d738" stroke="none" />
</svg>