<?xml version="1.0" encoding="utf-8"?>
<svg version="1.1" xmlns:xlink="http://www.w3.org/1999/xlink" width="10px" height="119px" preserveAspectRatio="xMidYMin meet" viewBox="1076 358  8 119" xmlns="http://www.w3.org/2000/svg">
  <path d="M 970 363  L 1075 363  A 5 5 0 0 1 1080 368 L 1080 467  A 5 5 0 0 0 1085 472 L 1088 472  " stroke-width="2" stroke="#f4d738" fill="none" />
  <path d="M 971.5 359.5  A 3.5 3.5 0 0 0 968 363 A 3.5 3.5 0 0 0 971.5 366.5 A 3.5 3.5 0 0 0 975 363 A 3.5 3.5 0 0 0 971.5 359.5 Z M 1086.5 468.5  A 3.5 3.5 0 0 0 1083 472 A 3.5 3.5 0 0 0 1086.5 475.5 A 3.5 3.5 0 0 0 1090 472 A 3.5 3.5 0 0 0 1086.5 468.5 Z " fill-rule="nonzero" fill="#f4d738" stroke="none" />
</svg>