<?xml version="1.0" encoding="utf-8"?>
<svg version="1.1" xmlns:xlink="http://www.w3.org/1999/xlink" width="10px" height="77px" preserveAspectRatio="xMidYMin meet" viewBox="1546 569  8 77" xmlns="http://www.w3.org/2000/svg">
  <path d="M 1453 574  L 1545 574  A 5 5 0 0 1 1550 579 L 1550 636  A 5 5 0 0 0 1555 641 L 1562 641  " stroke-width="2" stroke="#f4d738" fill="none" />
  <path d="M 1454.5 570.5  A 3.5 3.5 0 0 0 1451 574 A 3.5 3.5 0 0 0 1454.5 577.5 A 3.5 3.5 0 0 0 1458 574 A 3.5 3.5 0 0 0 1454.5 570.5 Z M 1560.5 637.5  A 3.5 3.5 0 0 0 1557 641 A 3.5 3.5 0 0 0 1560.5 644.5 A 3.5 3.5 0 0 0 1564 641 A 3.5 3.5 0 0 0 1560.5 637.5 Z " fill-rule="nonzero" fill="#f4d738" stroke="none" />
</svg>