<?xml version="1.0" encoding="utf-8"?>
<svg version="1.1" xmlns:xlink="http://www.w3.org/1999/xlink" width="21px" height="20px" preserveAspectRatio="xMinYMid meet" viewBox="1239 1312  21 18" xmlns="http://www.w3.org/2000/svg">
  <path d="M 1248 1321  L 1265 1321  A 5 5 0 0 1 1270 1326 L 1270 1385  A 5 5 0 0 0 1275 1390 L 1525 1390  A 5 5 0 0 1 1530 1395 L 1530 1502  A 5 5 0 0 0 1535 1507 L 1548 1507  " stroke-width="2" stroke="#f4d738" fill="none" />
  <path d="M 1249.5 1317.5  A 3.5 3.5 0 0 0 1246 1321 A 3.5 3.5 0 0 0 1249.5 1324.5 A 3.5 3.5 0 0 0 1253 1321 A 3.5 3.5 0 0 0 1249.5 1317.5 Z M 1546.5 1503.5  A 3.5 3.5 0 0 0 1543 1507 A 3.5 3.5 0 0 0 1546.5 1510.5 A 3.5 3.5 0 0 0 1550 1507 A 3.5 3.5 0 0 0 1546.5 1503.5 Z " fill-rule="nonzero" fill="#f4d738" stroke="none" />
</svg>