<?xml version="1.0" encoding="utf-8"?>
<svg version="1.1" xmlns:xlink="http://www.w3.org/1999/xlink" width="10px" height="49px" preserveAspectRatio="xMidYMin meet" viewBox="1986 1616  8 49" xmlns="http://www.w3.org/2000/svg">
  <path d="M 1327.91939538826 1609.68294196962  A 2 2 0 0 0 1329 1610 L 1525 1610  A 5 5 0 0 1 1530 1615 L 1530 1655  A 5 5 0 0 0 1535 1660 L 1985 1660  A 5 5 0 0 0 1990 1655 L 1990 1626  A 5 5 0 0 1 1995 1621 L 2005 1621  " stroke-width="2" stroke="#f4d738" fill="none" />
  <path d="M 1329.35840734641 1606.5  A 3.5 3.5 0 0 0 1325.85840734641 1610 A 3.5 3.5 0 0 0 1329.35840734641 1613.5 A 3.5 3.5 0 0 0 1332.85840734641 1610 A 3.5 3.5 0 0 0 1329.35840734641 1606.5 Z M 2003.5 1617.5  A 3.5 3.5 0 0 0 2000 1621 A 3.5 3.5 0 0 0 2003.5 1624.5 A 3.5 3.5 0 0 0 2007 1621 A 3.5 3.5 0 0 0 2003.5 1617.5 Z " fill-rule="nonzero" fill="#f4d738" stroke="none" />
</svg>