<?xml version="1.0" encoding="utf-8"?>
<svg version="1.1" xmlns:xlink="http://www.w3.org/1999/xlink" width="10px" height="265px" preserveAspectRatio="xMidYMin meet" viewBox="1076 2360  8 265" xmlns="http://www.w3.org/2000/svg">
  <path d="M 839 2657  L 895 2657  A 5 5 0 0 0 900 2652 L 900 2625  A 5 5 0 0 1 905 2620 L 1075 2620  A 5 5 0 0 0 1080 2615 L 1080 2370  A 5 5 0 0 1 1085 2365 L 1088 2365  " stroke-width="2" stroke="#f4d738" fill="none" />
  <path d="M 840.5 2653.5  A 3.5 3.5 0 0 0 837 2657 A 3.5 3.5 0 0 0 840.5 2660.5 A 3.5 3.5 0 0 0 844 2657 A 3.5 3.5 0 0 0 840.5 2653.5 Z M 1086.5 2361.5  A 3.5 3.5 0 0 0 1083 2365 A 3.5 3.5 0 0 0 1086.5 2368.5 A 3.5 3.5 0 0 0 1090 2365 A 3.5 3.5 0 0 0 1086.5 2361.5 Z " fill-rule="nonzero" fill="#f4d738" stroke="none" />
</svg>