<?xml version="1.0" encoding="utf-8"?>
<svg version="1.1" xmlns:xlink="http://www.w3.org/1999/xlink" width="10px" height="25px" preserveAspectRatio="xMidYMin meet" viewBox="906 2025  8 25" xmlns="http://www.w3.org/2000/svg">
  <path d="M 827 2045  L 905 2045  A 5 5 0 0 0 910 2040 L 910 2035  A 5 5 0 0 1 915 2030 L 1045 2030  A 5 5 0 0 0 1050 2025 L 1050 1925  A 5 5 0 0 1 1055 1920 L 1730 1920  A 5 5 0 0 1 1735 1925 L 1735 1958  " stroke-width="2" stroke="#f4d738" fill="none" />
  <path d="M 828.5 2041.5  A 3.5 3.5 0 0 0 825 2045 A 3.5 3.5 0 0 0 828.5 2048.5 A 3.5 3.5 0 0 0 832 2045 A 3.5 3.5 0 0 0 828.5 2041.5 Z M 1735 1953  A 3.5 3.5 0 0 0 1731.5 1956.5 A 3.5 3.5 0 0 0 1735 1960 A 3.5 3.5 0 0 0 1738.5 1956.5 A 3.5 3.5 0 0 0 1735 1953 Z " fill-rule="nonzero" fill="#f4d738" stroke="none" />
</svg>