<?xml version="1.0" encoding="utf-8"?>
<svg version="1.1" xmlns:xlink="http://www.w3.org/1999/xlink" width="21px" height="20px" preserveAspectRatio="xMinYMid meet" viewBox="914 2145  21 18" xmlns="http://www.w3.org/2000/svg">
  <path d="M 926 2154  L 625 2154  A 5 5 0 0 0 620 2159 L 620 2885  A 5 5 0 0 0 625 2890 L 787 2890  A 5 5 0 0 1 792 2895 L 792 2900  " stroke-width="2" stroke="#f4d738" fill="none" />
  <path d="M 924.5 2150.5  A 3.5 3.5 0 0 0 921 2154 A 3.5 3.5 0 0 0 924.5 2157.5 A 3.5 3.5 0 0 0 928 2154 A 3.5 3.5 0 0 0 924.5 2150.5 Z M 792 2895  A 3.5 3.5 0 0 0 788.5 2898.5 A 3.5 3.5 0 0 0 792 2902 A 3.5 3.5 0 0 0 795.5 2898.5 A 3.5 3.5 0 0 0 792 2895 Z " fill-rule="nonzero" fill="#f4d738" stroke="none" />
</svg>