<?xml version="1.0" encoding="utf-8"?>
<svg version="1.1" xmlns:xlink="http://www.w3.org/1999/xlink" width="10px" height="18px" preserveAspectRatio="xMidYMin meet" viewBox="1271 2885  8 18" xmlns="http://www.w3.org/2000/svg">
  <path d="M 1415 2671  L 1415 2885  A 5 5 0 0 1 1410 2890 L 1280 2890  A 5 5 0 0 0 1275 2895 L 1275 2901  " stroke-width="2" stroke="#f4d738" fill="none" />
  <path d="M 1415 2669  A 3.5 3.5 0 0 0 1411.5 2672.5 A 3.5 3.5 0 0 0 1415 2676 A 3.5 3.5 0 0 0 1418.5 2672.5 A 3.5 3.5 0 0 0 1415 2669 Z M 1275 2896  A 3.5 3.5 0 0 0 1271.5 2899.5 A 3.5 3.5 0 0 0 1275 2903 A 3.5 3.5 0 0 0 1278.5 2899.5 A 3.5 3.5 0 0 0 1275 2896 Z " fill-rule="nonzero" fill="#f4d738" stroke="none" />
</svg>