<?xml version="1.0" encoding="utf-8"?>
<svg version="1.1" xmlns:xlink="http://www.w3.org/1999/xlink" width="237px" height="10px" preserveAspectRatio="xMinYMid meet" viewBox="1505 2776  237 8" xmlns="http://www.w3.org/2000/svg">
  <path d="M 1445 2972  L 1505 2972  A 5 5 0 0 0 1510 2967 L 1510 2785  A 5 5 0 0 1 1515 2780 L 1732 2780  A 5 5 0 0 0 1737 2775 L 1737 2772  " stroke-width="2" stroke="#f4d738" fill="none" />
  <path d="M 1446.5 2968.5  A 3.5 3.5 0 0 0 1443 2972 A 3.5 3.5 0 0 0 1446.5 2975.5 A 3.5 3.5 0 0 0 1450 2972 A 3.5 3.5 0 0 0 1446.5 2968.5 Z M 1737 2770  A 3.5 3.5 0 0 0 1733.5 2773.5 A 3.5 3.5 0 0 0 1737 2777 A 3.5 3.5 0 0 0 1740.5 2773.5 A 3.5 3.5 0 0 0 1737 2770 Z " fill-rule="nonzero" fill="#f4d738" stroke="none" />
</svg>