<?xml version="1.0" encoding="utf-8"?>
<svg version="1.1" xmlns:xlink="http://www.w3.org/1999/xlink" width="10px" height="451px" preserveAspectRatio="xMidYMin meet" viewBox="2006 3304  8 451" xmlns="http://www.w3.org/2000/svg">
  <path d="M 1440 3647  L 1515 3647  A 5 5 0 0 1 1520 3652 L 1520 3745  A 5 5 0 0 0 1525 3750 L 2005 3750  A 5 5 0 0 0 2010 3745 L 2010 3314  A 5 5 0 0 1 2015 3309 L 2023 3309  " stroke-width="2" stroke="#f4d738" fill="none" />
  <path d="M 1441.5 3643.5  A 3.5 3.5 0 0 0 1438 3647 A 3.5 3.5 0 0 0 1441.5 3650.5 A 3.5 3.5 0 0 0 1445 3647 A 3.5 3.5 0 0 0 1441.5 3643.5 Z M 2021.5 3305.5  A 3.5 3.5 0 0 0 2018 3309 A 3.5 3.5 0 0 0 2021.5 3312.5 A 3.5 3.5 0 0 0 2025 3309 A 3.5 3.5 0 0 0 2021.5 3305.5 Z " fill-rule="nonzero" fill="#f4d738" stroke="none" />
</svg>