<?xml version="1.0" encoding="utf-8"?>
<svg version="1.1" xmlns:xlink="http://www.w3.org/1999/xlink" width="10px" height="16px" preserveAspectRatio="xMidYMin meet" viewBox="2204 1935  8 16" xmlns="http://www.w3.org/2000/svg">
  <defs>
    <mask fill="white" id="clip12">
      <path d="M 2204 1885  L 2324 1885  L 2324 1929  L 2204 1929  Z M 2198 1797  L 2324 1797  L 2324 1961  L 2198 1961  Z " fill-rule="evenodd" />
    </mask>
  </defs>
  <path d="M 2264 1809  L 2264 1935  A 5 5 0 0 1 2259 1940 L 2213 1940  A 5 5 0 0 0 2208 1945 L 2208 1949  " stroke-width="2" stroke="#f4d738" fill="none" mask="url(#clip12)" />
  <path d="M 2264 1807  A 3.5 3.5 0 0 0 2260.5 1810.5 A 3.5 3.5 0 0 0 2264 1814 A 3.5 3.5 0 0 0 2267.5 1810.5 A 3.5 3.5 0 0 0 2264 1807 Z M 2208 1944  A 3.5 3.5 0 0 0 2204.5 1947.5 A 3.5 3.5 0 0 0 2208 1951 A 3.5 3.5 0 0 0 2211.5 1947.5 A 3.5 3.5 0 0 0 2208 1944 Z " fill-rule="nonzero" fill="#f4d738" stroke="none" mask="url(#clip12)" />
</svg>