<?xml version="1.0" encoding="utf-8"?>
<svg version="1.1" xmlns:xlink="http://www.w3.org/1999/xlink" width="368px" height="10px" preserveAspectRatio="xMinYMid meet" viewBox="357 152  368 8" xmlns="http://www.w3.org/2000/svg">
  <path d="M 359 156  L 718 156  A 2 2 0 0 0 720 154 A 2 2 0 0 1 722 152 L 733 152  " stroke-width="2" stroke="#f4d738" fill="none" />
  <path d="M 360.5 152.5  A 3.5 3.5 0 0 0 357 156 A 3.5 3.5 0 0 0 360.5 159.5 A 3.5 3.5 0 0 0 364 156 A 3.5 3.5 0 0 0 360.5 152.5 Z M 731.5 148.5  A 3.5 3.5 0 0 0 728 152 A 3.5 3.5 0 0 0 731.5 155.5 A 3.5 3.5 0 0 0 735 152 A 3.5 3.5 0 0 0 731.5 148.5 Z " fill-rule="nonzero" fill="#f4d738" stroke="none" />
</svg>