<?xml version="1.0" encoding="utf-8"?>
<svg version="1.1" xmlns:xlink="http://www.w3.org/1999/xlink" width="10px" height="68px" preserveAspectRatio="xMidYMin meet" viewBox="2189 45  8 68" xmlns="http://www.w3.org/2000/svg">
  <path d="M 488 416  L 555 416  A 5 5 0 0 0 560 411 L 560 159  A 3 3 0 0 0 563 156 A 3 3 0 0 0 560 153 L 560 55  A 5 5 0 0 1 565 50 L 2188 50  A 5 5 0 0 1 2193 55 L 2193 111  " stroke-width="2" stroke="#f4d738" fill="none" />
  <path d="M 489.5 412.5  A 3.5 3.5 0 0 0 486 416 A 3.5 3.5 0 0 0 489.5 419.5 A 3.5 3.5 0 0 0 493 416 A 3.5 3.5 0 0 0 489.5 412.5 Z M 2193 106  A 3.5 3.5 0 0 0 2189.5 109.5 A 3.5 3.5 0 0 0 2193 113 A 3.5 3.5 0 0 0 2196.5 109.5 A 3.5 3.5 0 0 0 2193 106 Z " fill-rule="nonzero" fill="#f4d738" stroke="none" />
</svg>