<?xml version="1.0" encoding="utf-8"?>
<svg version="1.1" xmlns:xlink="http://www.w3.org/1999/xlink" width="315px" height="10px" preserveAspectRatio="xMinYMid meet" viewBox="120 92  315 8" xmlns="http://www.w3.org/2000/svg">
  <path d="M 122 96  L 429 96  A 1 1 0 0 1 430 97 A 1 1 0 0 0 431 98 L 438 98  " stroke-width="2" stroke="#ffcc33" fill="none" />
  <path d="M 123.5 92.5  A 3.5 3.5 0 0 0 120 96 A 3.5 3.5 0 0 0 123.5 99.5 A 3.5 3.5 0 0 0 127 96 A 3.5 3.5 0 0 0 123.5 92.5 Z M 436.5 94.5  A 3.5 3.5 0 0 0 433 98 A 3.5 3.5 0 0 0 436.5 101.5 A 3.5 3.5 0 0 0 440 98 A 3.5 3.5 0 0 0 436.5 94.5 Z " fill-rule="nonzero" fill="#ffcc33" stroke="none" />
</svg>