<?xml version="1.0" encoding="utf-8"?>
<svg version="1.1" xmlns:xlink="http://www.w3.org/1999/xlink" width="10px" height="87px" preserveAspectRatio="xMidYMin meet" viewBox="426 385  8 87" xmlns="http://www.w3.org/2000/svg">
  <path d="M 177 338  L 177 385  A 5 5 0 0 0 182 390 L 425 390  A 5 5 0 0 1 430 395 L 430 462  A 5 5 0 0 0 435 467 L 438 467  " stroke-width="2" stroke="#ffcc33" fill="none" />
  <path d="M 177 336  A 3.5 3.5 0 0 0 173.5 339.5 A 3.5 3.5 0 0 0 177 343 A 3.5 3.5 0 0 0 180.5 339.5 A 3.5 3.5 0 0 0 177 336 Z M 436.5 463.5  A 3.5 3.5 0 0 0 433 467 A 3.5 3.5 0 0 0 436.5 470.5 A 3.5 3.5 0 0 0 440 467 A 3.5 3.5 0 0 0 436.5 463.5 Z " fill-rule="nonzero" fill="#ffcc33" stroke="none" />
</svg>