<?xml version="1.0" encoding="utf-8"?>
<svg version="1.1" xmlns:xlink="http://www.w3.org/1999/xlink" width="21px" height="20px" preserveAspectRatio="xMinYMid meet" viewBox="609 401  21 18" xmlns="http://www.w3.org/2000/svg">
  <path d="M 618 410  L 765 410  A 5 5 0 0 0 770 405 L 770 235  A 5 5 0 0 1 775 230 L 1225 230  A 5 5 0 0 1 1230 235 L 1230 623  A 5 5 0 0 0 1235 628 L 1241 628  " stroke-width="2" stroke="#ffcc33" fill="none" />
  <path d="M 619.5 406.5  A 3.5 3.5 0 0 0 616 410 A 3.5 3.5 0 0 0 619.5 413.5 A 3.5 3.5 0 0 0 623 410 A 3.5 3.5 0 0 0 619.5 406.5 Z M 1239.5 624.5  A 3.5 3.5 0 0 0 1236 628 A 3.5 3.5 0 0 0 1239.5 631.5 A 3.5 3.5 0 0 0 1243 628 A 3.5 3.5 0 0 0 1239.5 624.5 Z " fill-rule="nonzero" fill="#ffcc33" stroke="none" />
</svg>