<?xml version="1.0" encoding="utf-8"?>
<svg version="1.1" xmlns:xlink="http://www.w3.org/1999/xlink" width="10px" height="30px" preserveAspectRatio="xMidYMin meet" viewBox="426 385  8 30" xmlns="http://www.w3.org/2000/svg">
  <path d="M 233 340  L 233 385  A 5 5 0 0 0 238 390 L 425 390  A 5 5 0 0 1 430 395 L 430 405  A 5 5 0 0 0 435 410 L 438 410  " stroke-width="2" stroke="#ffcc33" fill="none" />
  <path d="M 233 338  A 3.5 3.5 0 0 0 229.5 341.5 A 3.5 3.5 0 0 0 233 345 A 3.5 3.5 0 0 0 236.5 341.5 A 3.5 3.5 0 0 0 233 338 Z M 436.5 406.5  A 3.5 3.5 0 0 0 433 410 A 3.5 3.5 0 0 0 436.5 413.5 A 3.5 3.5 0 0 0 440 410 A 3.5 3.5 0 0 0 436.5 406.5 Z " fill-rule="nonzero" fill="#ffcc33" stroke="none" />
</svg>