<?xml version="1.0" encoding="utf-8"?>
<svg version="1.1" xmlns:xlink="http://www.w3.org/1999/xlink" width="15px" height="10px" preserveAspectRatio="xMinYMid meet" viewBox="425 531  15 8" xmlns="http://www.w3.org/2000/svg">
  <path d="M 253 537  L 429 537  A 1 1 0 0 0 430 536 A 1 1 0 0 1 431 535 L 438 535  " stroke-width="2" stroke="#ffcc33" fill="none" />
  <path d="M 254.5 533.5  A 3.5 3.5 0 0 0 251 537 A 3.5 3.5 0 0 0 254.5 540.5 A 3.5 3.5 0 0 0 258 537 A 3.5 3.5 0 0 0 254.5 533.5 Z M 436.5 531.5  A 3.5 3.5 0 0 0 433 535 A 3.5 3.5 0 0 0 436.5 538.5 A 3.5 3.5 0 0 0 440 535 A 3.5 3.5 0 0 0 436.5 531.5 Z " fill-rule="nonzero" fill="#ffcc33" stroke="none" />
</svg>