<?xml version="1.0" encoding="utf-8"?>
<svg version="1.1" xmlns:xlink="http://www.w3.org/1999/xlink" width="21px" height="20px" preserveAspectRatio="xMinYMid meet" viewBox="609 458  21 18" xmlns="http://www.w3.org/2000/svg">
  <path d="M 618 467  L 765 467  A 5 5 0 0 1 770 472 L 770 509  A 5 5 0 0 0 775 514 L 784 514  " stroke-width="2" stroke="#ffcc33" fill="none" />
  <path d="M 619.5 463.5  A 3.5 3.5 0 0 0 616 467 A 3.5 3.5 0 0 0 619.5 470.5 A 3.5 3.5 0 0 0 623 467 A 3.5 3.5 0 0 0 619.5 463.5 Z M 782.5 510.5  A 3.5 3.5 0 0 0 779 514 A 3.5 3.5 0 0 0 782.5 517.5 A 3.5 3.5 0 0 0 786 514 A 3.5 3.5 0 0 0 782.5 510.5 Z " fill-rule="nonzero" fill="#ffcc33" stroke="none" />
</svg>