<?xml version="1.0" encoding="utf-8"?>
<svg version="1.1" xmlns:xlink="http://www.w3.org/1999/xlink" width="21px" height="20px" preserveAspectRatio="xMinYMid meet" viewBox="371 260  21 18" xmlns="http://www.w3.org/2000/svg">
  <path d="M 380 269  L 427.5 269  A 2.5 2.5 0 0 1 430 271.5 A 2.5 2.5 0 0 0 432.5 274 L 440 274  " stroke-width="2" stroke="#ffcc33" fill="none" />
  <path d="M 381.5 265.5  A 3.5 3.5 0 0 0 378 269 A 3.5 3.5 0 0 0 381.5 272.5 A 3.5 3.5 0 0 0 385 269 A 3.5 3.5 0 0 0 381.5 265.5 Z M 438.5 270.5  A 3.5 3.5 0 0 0 435 274 A 3.5 3.5 0 0 0 438.5 277.5 A 3.5 3.5 0 0 0 442 274 A 3.5 3.5 0 0 0 438.5 270.5 Z " fill-rule="nonzero" fill="#ffcc33" stroke="none" />
</svg>