<?xml version="1.0" encoding="utf-8"?>
<svg version="1.1" xmlns:xlink="http://www.w3.org/1999/xlink" width="17px" height="10px" preserveAspectRatio="xMinYMid meet" viewBox="425 194  17 8" xmlns="http://www.w3.org/2000/svg">
  <path d="M 379 193  L 427.5 193  A 2.5 2.5 0 0 1 430 195.5 A 2.5 2.5 0 0 0 432.5 198 L 440 198  " stroke-width="2" stroke="#ffcc33" fill="none" />
  <path d="M 380.5 189.5  A 3.5 3.5 0 0 0 377 193 A 3.5 3.5 0 0 0 380.5 196.5 A 3.5 3.5 0 0 0 384 193 A 3.5 3.5 0 0 0 380.5 189.5 Z M 438.5 194.5  A 3.5 3.5 0 0 0 435 198 A 3.5 3.5 0 0 0 438.5 201.5 A 3.5 3.5 0 0 0 442 198 A 3.5 3.5 0 0 0 438.5 194.5 Z " fill-rule="nonzero" fill="#ffcc33" stroke="none" />
</svg>