<?xml version="1.0" encoding="utf-8"?>
<svg version="1.1" xmlns:xlink="http://www.w3.org/1999/xlink" width="21px" height="20px" preserveAspectRatio="xMinYMid meet" viewBox="368 112  21 18" xmlns="http://www.w3.org/2000/svg">
  <path d="M 377 121  L 440 121  " stroke-width="2" stroke="#ffcc33" fill="none" />
  <path d="M 378.5 117.5  A 3.5 3.5 0 0 0 375 121 A 3.5 3.5 0 0 0 378.5 124.5 A 3.5 3.5 0 0 0 382 121 A 3.5 3.5 0 0 0 378.5 117.5 Z M 438.5 117.5  A 3.5 3.5 0 0 0 435 121 A 3.5 3.5 0 0 0 438.5 124.5 A 3.5 3.5 0 0 0 442 121 A 3.5 3.5 0 0 0 438.5 117.5 Z " fill-rule="nonzero" fill="#ffcc33" stroke="none" />
</svg>