<?xml version="1.0" encoding="utf-8"?>
<svg version="1.1" xmlns:xlink="http://www.w3.org/1999/xlink" width="20px" height="21px" preserveAspectRatio="xMidYMin meet" viewBox="582 313  18 21" xmlns="http://www.w3.org/2000/svg">
  <path d="M 591 322  L 591 405  A 5 5 0 0 0 596 410 L 1215 410  A 5 5 0 0 1 1220 415 L 1220 449  A 5 5 0 0 0 1225 454 L 1234 454  " stroke-width="2" stroke="#ffcc33" fill="none" />
  <path d="M 591 320  A 3.5 3.5 0 0 0 587.5 323.5 A 3.5 3.5 0 0 0 591 327 A 3.5 3.5 0 0 0 594.5 323.5 A 3.5 3.5 0 0 0 591 320 Z M 1232.5 450.5  A 3.5 3.5 0 0 0 1229 454 A 3.5 3.5 0 0 0 1232.5 457.5 A 3.5 3.5 0 0 0 1236 454 A 3.5 3.5 0 0 0 1232.5 450.5 Z " fill-rule="nonzero" fill="#ffcc33" stroke="none" />
</svg>