<?xml version="1.0" encoding="utf-8"?>
<svg version="1.1" xmlns:xlink="http://www.w3.org/1999/xlink" width="20px" height="21px" preserveAspectRatio="xMidYMin meet" viewBox="283 784  18 21" xmlns="http://www.w3.org/2000/svg">
  <path d="M 292 793  L 292 853  A 5 5 0 0 0 297 858 L 440 858  " stroke-width="2" stroke="#ffcc33" fill="none" />
  <path d="M 292 791  A 3.5 3.5 0 0 0 288.5 794.5 A 3.5 3.5 0 0 0 292 798 A 3.5 3.5 0 0 0 295.5 794.5 A 3.5 3.5 0 0 0 292 791 Z M 438.5 854.5  A 3.5 3.5 0 0 0 435 858 A 3.5 3.5 0 0 0 438.5 861.5 A 3.5 3.5 0 0 0 442 858 A 3.5 3.5 0 0 0 438.5 854.5 Z " fill-rule="nonzero" fill="#ffcc33" stroke="none" />
</svg>