<?xml version="1.0" encoding="utf-8"?>
<svg version="1.1" xmlns:xlink="http://www.w3.org/1999/xlink" width="51px" height="10px" preserveAspectRatio="xMinYMid meet" viewBox="404 428  51 8" xmlns="http://www.w3.org/2000/svg">
  <path d="M 406 432  L 448 432  " stroke-width="2" stroke="#ffcc33" fill="none" />
  <path d="M 407.5 428.5  A 3.5 3.5 0 0 0 404 432 A 3.5 3.5 0 0 0 407.5 435.5 A 3.5 3.5 0 0 0 411 432 A 3.5 3.5 0 0 0 407.5 428.5 Z M 446.5 428.5  A 3.5 3.5 0 0 0 443 432 A 3.5 3.5 0 0 0 446.5 435.5 A 3.5 3.5 0 0 0 450 432 A 3.5 3.5 0 0 0 446.5 428.5 Z " fill-rule="nonzero" fill="#ffcc33" stroke="none" />
</svg>