<?xml version="1.0" encoding="utf-8"?>
<svg version="1.1" xmlns:xlink="http://www.w3.org/1999/xlink" width="10px" height="30px" preserveAspectRatio="xMidYMin meet" viewBox="78 675  8 30" xmlns="http://www.w3.org/2000/svg">
  <path d="M 82 703  L 82 685  A 5 5 0 0 1 87 680 L 425 680  A 5 5 0 0 1 430 685 L 430 710  A 5 5 0 0 0 435 715 L 440 715  " stroke-width="2" stroke="#ffcc33" fill="none" />
  <path d="M 82 698  A 3.5 3.5 0 0 0 78.5 701.5 A 3.5 3.5 0 0 0 82 705 A 3.5 3.5 0 0 0 85.5 701.5 A 3.5 3.5 0 0 0 82 698 Z M 438.5 711.5  A 3.5 3.5 0 0 0 435 715 A 3.5 3.5 0 0 0 438.5 718.5 A 3.5 3.5 0 0 0 442 715 A 3.5 3.5 0 0 0 438.5 711.5 Z " fill-rule="nonzero" fill="#ffcc33" stroke="none" />
</svg>