<?xml version="1.0" encoding="utf-8"?>
<svg version="1.1" xmlns:xlink="http://www.w3.org/1999/xlink" width="10px" height="86px" preserveAspectRatio="xMidYMin meet" viewBox="316 719  8 86" xmlns="http://www.w3.org/2000/svg">
  <path d="M 259 724  L 315 724  A 5 5 0 0 1 320 729 L 320 795  A 5 5 0 0 0 325 800 L 440 800  " stroke-width="2" stroke="#ffcc33" fill="none" />
  <path d="M 260.5 720.5  A 3.5 3.5 0 0 0 257 724 A 3.5 3.5 0 0 0 260.5 727.5 A 3.5 3.5 0 0 0 264 724 A 3.5 3.5 0 0 0 260.5 720.5 Z M 438.5 796.5  A 3.5 3.5 0 0 0 435 800 A 3.5 3.5 0 0 0 438.5 803.5 A 3.5 3.5 0 0 0 442 800 A 3.5 3.5 0 0 0 438.5 796.5 Z " fill-rule="nonzero" fill="#ffcc33" stroke="none" />
</svg>