<?xml version="1.0" encoding="utf-8"?>
<svg version="1.1" xmlns:xlink="http://www.w3.org/1999/xlink" width="10px" height="73px" preserveAspectRatio="xMidYMin meet" viewBox="1038 732  8 73" xmlns="http://www.w3.org/2000/svg">
  <path d="M 1042 734  L 1042 795  A 5 5 0 0 0 1047 800 L 1083 800  A 5 5 0 0 1 1088 805 L 1088 889  " stroke-width="2" stroke="#ffcc33" fill="none" />
  <path d="M 1042 732  A 3.5 3.5 0 0 0 1038.5 735.5 A 3.5 3.5 0 0 0 1042 739 A 3.5 3.5 0 0 0 1045.5 735.5 A 3.5 3.5 0 0 0 1042 732 Z M 1088 884  A 3.5 3.5 0 0 0 1084.5 887.5 A 3.5 3.5 0 0 0 1088 891 A 3.5 3.5 0 0 0 1091.5 887.5 A 3.5 3.5 0 0 0 1088 884 Z " fill-rule="nonzero" fill="#ffcc33" stroke="none" />
</svg>