<?xml version="1.0" encoding="utf-8"?>
<svg version="1.1" xmlns:xlink="http://www.w3.org/1999/xlink" width="10px" height="39px" preserveAspectRatio="xMidYMin meet" viewBox="426 720  8 39" xmlns="http://www.w3.org/2000/svg">
  <path d="M 379 725  L 425 725  A 5 5 0 0 1 430 730 L 430 749  A 5 5 0 0 0 435 754 L 440 754  " stroke-width="2" stroke="#ffcc33" fill="none" />
  <path d="M 380.5 721.5  A 3.5 3.5 0 0 0 377 725 A 3.5 3.5 0 0 0 380.5 728.5 A 3.5 3.5 0 0 0 384 725 A 3.5 3.5 0 0 0 380.5 721.5 Z M 438.5 750.5  A 3.5 3.5 0 0 0 435 754 A 3.5 3.5 0 0 0 438.5 757.5 A 3.5 3.5 0 0 0 442 754 A 3.5 3.5 0 0 0 438.5 750.5 Z " fill-rule="nonzero" fill="#ffcc33" stroke="none" />
</svg>