<?xml version="1.0" encoding="utf-8"?>
<svg version="1.1" xmlns:xlink="http://www.w3.org/1999/xlink" width="10px" height="149px" preserveAspectRatio="xMidYMin meet" viewBox="1097 736  8 149" xmlns="http://www.w3.org/2000/svg">
  <path d="M 1101 738  L 1101 875  A 5 5 0 0 0 1106 880 L 1227 880  A 5 5 0 0 1 1232 885 L 1232 889  " stroke-width="2" stroke="#ffcc33" fill="none" />
  <path d="M 1101 736  A 3.5 3.5 0 0 0 1097.5 739.5 A 3.5 3.5 0 0 0 1101 743 A 3.5 3.5 0 0 0 1104.5 739.5 A 3.5 3.5 0 0 0 1101 736 Z M 1232 884  A 3.5 3.5 0 0 0 1228.5 887.5 A 3.5 3.5 0 0 0 1232 891 A 3.5 3.5 0 0 0 1235.5 887.5 A 3.5 3.5 0 0 0 1232 884 Z " fill-rule="nonzero" fill="#ffcc33" stroke="none" />
</svg>