<?xml version="1.0" encoding="utf-8"?>
<svg version="1.1" xmlns:xlink="http://www.w3.org/1999/xlink" width="20px" height="21px" preserveAspectRatio="xMidYMin meet" viewBox="148 786  18 21" xmlns="http://www.w3.org/2000/svg">
  <path d="M 157 795  L 157 811  A 5 5 0 0 0 162 816 L 425 816  A 5 5 0 0 0 430 811 L 430 789  A 5 5 0 0 1 435 784 L 440 784  " stroke-width="2" stroke="#ffcc33" fill="none" />
  <path d="M 157 793  A 3.5 3.5 0 0 0 153.5 796.5 A 3.5 3.5 0 0 0 157 800 A 3.5 3.5 0 0 0 160.5 796.5 A 3.5 3.5 0 0 0 157 793 Z M 438.5 780.5  A 3.5 3.5 0 0 0 435 784 A 3.5 3.5 0 0 0 438.5 787.5 A 3.5 3.5 0 0 0 442 784 A 3.5 3.5 0 0 0 438.5 780.5 Z " fill-rule="nonzero" fill="#ffcc33" stroke="none" />
</svg>