<?xml version="1.0" encoding="utf-8"?>
<svg version="1.1" xmlns:xlink="http://www.w3.org/1999/xlink" width="28px" height="10px" preserveAspectRatio="xMinYMid meet" viewBox="1265 740  28 8" xmlns="http://www.w3.org/2000/svg">
  <path d="M 517 840  L 765 840  A 5 5 0 0 1 770 845 L 770 875  A 5 5 0 0 0 775 880 L 1265 880  A 5 5 0 0 0 1270 875 L 1270 749  A 5 5 0 0 1 1275 744 L 1291 744  " stroke-width="2" stroke="#ffcc33" fill="none" />
  <path d="M 518.929203673205 836.5  A 3.5 3.5 0 0 0 515.429203673205 840 A 3.5 3.5 0 0 0 518.929203673205 843.5 A 3.5 3.5 0 0 0 522.429203673205 840 A 3.5 3.5 0 0 0 518.929203673205 836.5 Z M 1289.5 740.5  A 3.5 3.5 0 0 0 1286 744 A 3.5 3.5 0 0 0 1289.5 747.5 A 3.5 3.5 0 0 0 1293 744 A 3.5 3.5 0 0 0 1289.5 740.5 Z " fill-rule="nonzero" fill="#ffcc33" stroke="none" />
</svg>