<?xml version="1.0" encoding="utf-8"?>
<svg version="1.1" xmlns:xlink="http://www.w3.org/1999/xlink" width="21px" height="20px" preserveAspectRatio="xMinYMid meet" viewBox="428 830  21 18" xmlns="http://www.w3.org/2000/svg">
  <path d="M 112 795  L 112 834  A 5 5 0 0 0 117 839 L 440 839  " stroke-width="2" stroke="#ffcc33" fill="none" />
  <path d="M 112 793  A 3.5 3.5 0 0 0 108.5 796.5 A 3.5 3.5 0 0 0 112 800 A 3.5 3.5 0 0 0 115.5 796.5 A 3.5 3.5 0 0 0 112 793 Z M 438.5 835.5  A 3.5 3.5 0 0 0 435 839 A 3.5 3.5 0 0 0 438.5 842.5 A 3.5 3.5 0 0 0 442 839 A 3.5 3.5 0 0 0 438.5 835.5 Z " fill-rule="nonzero" fill="#ffcc33" stroke="none" />
</svg>