<?xml version="1.0" encoding="utf-8"?>
<svg version="1.1" xmlns:xlink="http://www.w3.org/1999/xlink" width="17px" height="10px" preserveAspectRatio="xMinYMid meet" viewBox="425 709  17 8" xmlns="http://www.w3.org/2000/svg">
  <path d="M 379 771  L 425 771  A 5 5 0 0 0 430 766 L 430 718  A 5 5 0 0 1 435 713 L 440 713  " stroke-width="2" stroke="#ffcc33" fill="none" />
  <path d="M 380.5 767.5  A 3.5 3.5 0 0 0 377 771 A 3.5 3.5 0 0 0 380.5 774.5 A 3.5 3.5 0 0 0 384 771 A 3.5 3.5 0 0 0 380.5 767.5 Z M 438.5 709.5  A 3.5 3.5 0 0 0 435 713 A 3.5 3.5 0 0 0 438.5 716.5 A 3.5 3.5 0 0 0 442 713 A 3.5 3.5 0 0 0 438.5 709.5 Z " fill-rule="nonzero" fill="#ffcc33" stroke="none" />
</svg>