<?xml version="1.0" encoding="utf-8"?>
<svg version="1.1" xmlns:xlink="http://www.w3.org/1999/xlink" width="10px" height="240px" preserveAspectRatio="xMidYMin meet" viewBox="426 197  8 240" xmlns="http://www.w3.org/2000/svg">
  <path d="M 406 432  L 425 432  A 5 5 0 0 0 430 427 L 430 207  A 5 5 0 0 1 435 202 L 448 202  " stroke-width="2" stroke="#ffcc33" fill="none" />
  <path d="M 407.5 428.5  A 3.5 3.5 0 0 0 404 432 A 3.5 3.5 0 0 0 407.5 435.5 A 3.5 3.5 0 0 0 411 432 A 3.5 3.5 0 0 0 407.5 428.5 Z M 446.5 198.5  A 3.5 3.5 0 0 0 443 202 A 3.5 3.5 0 0 0 446.5 205.5 A 3.5 3.5 0 0 0 450 202 A 3.5 3.5 0 0 0 446.5 198.5 Z " fill-rule="nonzero" fill="#ffcc33" stroke="none" />
</svg>