<?xml version="1.0" encoding="utf-8"?>
<svg version="1.1" xmlns:xlink="http://www.w3.org/1999/xlink" width="135px" height="10px" preserveAspectRatio="xMinYMid meet" viewBox="315 134  135 8" xmlns="http://www.w3.org/2000/svg">
  <path d="M 320 132  L 320 133  A 5 5 0 0 0 325 138 L 448 138  " stroke-width="2" stroke="#ffcc33" fill="none" />
  <path d="M 320.02497917361 129.999167083234  A 3.5 3.5 0 0 0 316.52497917361 133.499167083234 A 3.5 3.5 0 0 0 320.02497917361 136.999167083234 A 3.5 3.5 0 0 0 323.52497917361 133.499167083234 A 3.5 3.5 0 0 0 320.02497917361 129.999167083234 Z M 446.5 134.5  A 3.5 3.5 0 0 0 443 138 A 3.5 3.5 0 0 0 446.5 141.5 A 3.5 3.5 0 0 0 450 138 A 3.5 3.5 0 0 0 446.5 134.5 Z " fill-rule="nonzero" fill="#ffcc33" stroke="none" />
</svg>