<?xml version="1.0" encoding="utf-8"?>
<svg version="1.1" xmlns:xlink="http://www.w3.org/1999/xlink" width="10px" height="69px" preserveAspectRatio="xMidYMin meet" viewBox="62 793  8 69" xmlns="http://www.w3.org/2000/svg">
  <path d="M 66 795  L 66 852  A 5 5 0 0 0 71 857 L 440 857  " stroke-width="2" stroke="#ffcc33" fill="none" />
  <path d="M 66 793  A 3.5 3.5 0 0 0 62.5 796.5 A 3.5 3.5 0 0 0 66 800 A 3.5 3.5 0 0 0 69.5 796.5 A 3.5 3.5 0 0 0 66 793 Z M 438.5 853.5  A 3.5 3.5 0 0 0 435 857 A 3.5 3.5 0 0 0 438.5 860.5 A 3.5 3.5 0 0 0 442 857 A 3.5 3.5 0 0 0 438.5 853.5 Z " fill-rule="nonzero" fill="#ffcc33" stroke="none" />
</svg>