<?xml version="1.0" encoding="utf-8"?>
<svg version="1.1" xmlns:xlink="http://www.w3.org/1999/xlink" width="20px" height="21px" preserveAspectRatio="xMidYMin meet" viewBox="1463 827  18 21" xmlns="http://www.w3.org/2000/svg">
  <path d="M 1472 836  L 1472 888  " stroke-width="2" stroke="#ffcc33" fill="none" />
  <path d="M 1472 834  A 3.5 3.5 0 0 0 1468.5 837.5 A 3.5 3.5 0 0 0 1472 841 A 3.5 3.5 0 0 0 1475.5 837.5 A 3.5 3.5 0 0 0 1472 834 Z M 1472 883  A 3.5 3.5 0 0 0 1468.5 886.5 A 3.5 3.5 0 0 0 1472 890 A 3.5 3.5 0 0 0 1475.5 886.5 A 3.5 3.5 0 0 0 1472 883 Z " fill-rule="nonzero" fill="#ffcc33" stroke="none" />
</svg>