<?xml version="1.0" encoding="utf-8"?>
<svg version="1.1" xmlns:xlink="http://www.w3.org/1999/xlink" width="21px" height="20px" preserveAspectRatio="xMinYMid meet" viewBox="803 759  21 18" xmlns="http://www.w3.org/2000/svg">
  <path d="M 569 138  L 795 138  A 5 5 0 0 1 800 143 L 800 763  A 5 5 0 0 0 805 768 L 815 768  " stroke-width="2" stroke="#ffcc33" fill="none" />
  <path d="M 570.5 134.5  A 3.5 3.5 0 0 0 567 138 A 3.5 3.5 0 0 0 570.5 141.5 A 3.5 3.5 0 0 0 574 138 A 3.5 3.5 0 0 0 570.5 134.5 Z M 813.5 764.5  A 3.5 3.5 0 0 0 810 768 A 3.5 3.5 0 0 0 813.5 771.5 A 3.5 3.5 0 0 0 817 768 A 3.5 3.5 0 0 0 813.5 764.5 Z " fill-rule="nonzero" fill="#ffcc33" stroke="none" />
</svg>