<?xml version="1.0" encoding="utf-8"?>
<svg version="1.1" xmlns:xlink="http://www.w3.org/1999/xlink" width="303px" height="10px" preserveAspectRatio="xMinYMid meet" viewBox="122 186  303 8" xmlns="http://www.w3.org/2000/svg">
  <path d="M 124 190  L 415 190  A 5 5 0 0 1 420 195 L 420 210  A 5 5 0 0 0 425 215 L 448 215  " stroke-width="2" stroke="#ffcc33" fill="none" />
  <path d="M 125.5 186.5  A 3.5 3.5 0 0 0 122 190 A 3.5 3.5 0 0 0 125.5 193.5 A 3.5 3.5 0 0 0 129 190 A 3.5 3.5 0 0 0 125.5 186.5 Z M 446.5 211.5  A 3.5 3.5 0 0 0 443 215 A 3.5 3.5 0 0 0 446.5 218.5 A 3.5 3.5 0 0 0 450 215 A 3.5 3.5 0 0 0 446.5 211.5 Z " fill-rule="nonzero" fill="#ffcc33" stroke="none" />
</svg>