<?xml version="1.0" encoding="utf-8"?>
<svg version="1.1" xmlns:xlink="http://www.w3.org/1999/xlink" width="35px" height="10px" preserveAspectRatio="xMinYMid meet" viewBox="415 146  35 8" xmlns="http://www.w3.org/2000/svg">
  <path d="M 214 147  L 418.5 147  A 1.5 1.5 0 0 1 420 148.5 A 1.5 1.5 0 0 0 421.5 150 L 448 150  " stroke-width="2" stroke="#ffcc33" fill="none" />
  <path d="M 215.5 143.5  A 3.5 3.5 0 0 0 212 147 A 3.5 3.5 0 0 0 215.5 150.5 A 3.5 3.5 0 0 0 219 147 A 3.5 3.5 0 0 0 215.5 143.5 Z M 446.5 146.5  A 3.5 3.5 0 0 0 443 150 A 3.5 3.5 0 0 0 446.5 153.5 A 3.5 3.5 0 0 0 450 150 A 3.5 3.5 0 0 0 446.5 146.5 Z " fill-rule="nonzero" fill="#ffcc33" stroke="none" />
</svg>