<?xml version="1.0" encoding="utf-8"?>
<svg version="1.1" xmlns:xlink="http://www.w3.org/1999/xlink" width="21px" height="20px" preserveAspectRatio="xMinYMid meet" viewBox="336 307  21 18" xmlns="http://www.w3.org/2000/svg">
  <path d="M 345 316  L 419.5 316  A 0.5 0.5 0 0 1 420 316.5 A 0.5 0.5 0 0 0 420.5 317 L 448 317  " stroke-width="2" stroke="#ffcc33" fill="none" />
  <path d="M 346.5 312.5  A 3.5 3.5 0 0 0 343 316 A 3.5 3.5 0 0 0 346.5 319.5 A 3.5 3.5 0 0 0 350 316 A 3.5 3.5 0 0 0 346.5 312.5 Z M 446.5 313.5  A 3.5 3.5 0 0 0 443 317 A 3.5 3.5 0 0 0 446.5 320.5 A 3.5 3.5 0 0 0 450 317 A 3.5 3.5 0 0 0 446.5 313.5 Z " fill-rule="nonzero" fill="#ffcc33" stroke="none" />
</svg>