<?xml version="1.0" encoding="utf-8"?>
<svg version="1.1" xmlns:xlink="http://www.w3.org/1999/xlink" width="10px" height="12px" preserveAspectRatio="xMidYMin meet" viewBox="776 702  8 12" xmlns="http://www.w3.org/2000/svg">
  <path d="M 569 707  L 779 707  A 1 1 0 0 1 780 708 A 1 1 0 0 0 781 709 L 802 709  " stroke-width="2" stroke="#ffcc33" fill="none" />
  <path d="M 570.5 703.5  A 3.5 3.5 0 0 0 567 707 A 3.5 3.5 0 0 0 570.5 710.5 A 3.5 3.5 0 0 0 574 707 A 3.5 3.5 0 0 0 570.5 703.5 Z M 800.5 705.5  A 3.5 3.5 0 0 0 797 709 A 3.5 3.5 0 0 0 800.5 712.5 A 3.5 3.5 0 0 0 804 709 A 3.5 3.5 0 0 0 800.5 705.5 Z " fill-rule="nonzero" fill="#ffcc33" stroke="none" />
</svg>