<?xml version="1.0" encoding="utf-8"?>
<svg version="1.1" xmlns:xlink="http://www.w3.org/1999/xlink" width="20px" height="21px" preserveAspectRatio="xMidYMin meet" viewBox="95 732  18 21" xmlns="http://www.w3.org/2000/svg">
  <path d="M 104 744  L 104 712  A 5 5 0 0 1 109 707 L 448 707  " stroke-width="2" stroke="#ffcc33" fill="none" />
  <path d="M 104 739  A 3.5 3.5 0 0 0 100.5 742.5 A 3.5 3.5 0 0 0 104 746 A 3.5 3.5 0 0 0 107.5 742.5 A 3.5 3.5 0 0 0 104 739 Z M 446.5 703.5  A 3.5 3.5 0 0 0 443 707 A 3.5 3.5 0 0 0 446.5 710.5 A 3.5 3.5 0 0 0 450 707 A 3.5 3.5 0 0 0 446.5 703.5 Z " fill-rule="nonzero" fill="#ffcc33" stroke="none" />
</svg>