<?xml version="1.0" encoding="utf-8"?>
<svg version="1.1" xmlns:xlink="http://www.w3.org/1999/xlink" width="470px" height="10px" preserveAspectRatio="xMinYMid meet" viewBox="775 6  470 8" xmlns="http://www.w3.org/2000/svg">
  <path d="M 579 279  L 775 279  A 5 5 0 0 0 780 274 L 780 15  A 5 5 0 0 1 785 10 L 1235 10  A 5 5 0 0 1 1240 15 L 1240 427  A 5 5 0 0 0 1245 432 L 1257 432  " stroke-width="2" stroke="#ffcc33" fill="none" />
  <path d="M 580.5 275.5  A 3.5 3.5 0 0 0 577 279 A 3.5 3.5 0 0 0 580.5 282.5 A 3.5 3.5 0 0 0 584 279 A 3.5 3.5 0 0 0 580.5 275.5 Z M 1255.5 428.5  A 3.5 3.5 0 0 0 1252 432 A 3.5 3.5 0 0 0 1255.5 435.5 A 3.5 3.5 0 0 0 1259 432 A 3.5 3.5 0 0 0 1255.5 428.5 Z " fill-rule="nonzero" fill="#ffcc33" stroke="none" />
</svg>