<?xml version="1.0" encoding="utf-8"?>
<svg version="1.1" xmlns:xlink="http://www.w3.org/1999/xlink" width="29px" height="10px" preserveAspectRatio="xMinYMid meet" viewBox="775 760  29 8" xmlns="http://www.w3.org/2000/svg">
  <path d="M 802 764  L 785 764  A 5 5 0 0 0 780 769 L 780 974  A 5 5 0 0 0 785 979 L 941 979  " stroke-width="2" stroke="#ffcc33" fill="none" />
  <path d="M 800.5 760.5  A 3.5 3.5 0 0 0 797 764 A 3.5 3.5 0 0 0 800.5 767.5 A 3.5 3.5 0 0 0 804 764 A 3.5 3.5 0 0 0 800.5 760.5 Z M 939.5 975.5  A 3.5 3.5 0 0 0 936 979 A 3.5 3.5 0 0 0 939.5 982.5 A 3.5 3.5 0 0 0 943 979 A 3.5 3.5 0 0 0 939.5 975.5 Z " fill-rule="nonzero" fill="#ffcc33" stroke="none" />
</svg>