<?xml version="1.0" encoding="utf-8"?>
<svg version="1.1" xmlns:xlink="http://www.w3.org/1999/xlink" width="10px" height="220px" preserveAspectRatio="xMidYMin meet" viewBox="1176 704  8 220" xmlns="http://www.w3.org/2000/svg">
  <path d="M 1156 709  L 1175 709  A 5 5 0 0 1 1180 714 L 1180 914  A 5 5 0 0 1 1175 919 L 1062 919  " stroke-width="2" stroke="#ffcc33" fill="none" />
  <path d="M 1157.5 705.5  A 3.5 3.5 0 0 0 1154 709 A 3.5 3.5 0 0 0 1157.5 712.5 A 3.5 3.5 0 0 0 1161 709 A 3.5 3.5 0 0 0 1157.5 705.5 Z M 1063.5 915.5  A 3.5 3.5 0 0 0 1060 919 A 3.5 3.5 0 0 0 1063.5 922.5 A 3.5 3.5 0 0 0 1067 919 A 3.5 3.5 0 0 0 1063.5 915.5 Z " fill-rule="nonzero" fill="#ffcc33" stroke="none" />
</svg>