<?xml version="1.0" encoding="utf-8"?>
<svg version="1.1" xmlns:xlink="http://www.w3.org/1999/xlink" width="21px" height="20px" preserveAspectRatio="xMinYMid meet" viewBox="382 758  21 18" xmlns="http://www.w3.org/2000/svg">
  <path d="M 391 767  L 448 767  " stroke-width="2" stroke="#ffcc33" fill="none" />
  <path d="M 392.5 763.5  A 3.5 3.5 0 0 0 389 767 A 3.5 3.5 0 0 0 392.5 770.5 A 3.5 3.5 0 0 0 396 767 A 3.5 3.5 0 0 0 392.5 763.5 Z M 446.5 763.5  A 3.5 3.5 0 0 0 443 767 A 3.5 3.5 0 0 0 446.5 770.5 A 3.5 3.5 0 0 0 450 767 A 3.5 3.5 0 0 0 446.5 763.5 Z " fill-rule="nonzero" fill="#ffcc33" stroke="none" />
</svg>