<?xml version="1.0" encoding="utf-8"?>
<svg version="1.1" xmlns:xlink="http://www.w3.org/1999/xlink" width="10px" height="499px" preserveAspectRatio="xMidYMin meet" viewBox="599 787  8 499" xmlns="http://www.w3.org/2000/svg">
  <path d="M 603 789  L 603 1276  A 5 5 0 0 1 598 1281 L 367 1281  " stroke-width="2" stroke="#ffcc33" fill="none" />
  <path d="M 603 787  A 3.5 3.5 0 0 0 599.5 790.5 A 3.5 3.5 0 0 0 603 794 A 3.5 3.5 0 0 0 606.5 790.5 A 3.5 3.5 0 0 0 603 787 Z M 368.5 1277.5  A 3.5 3.5 0 0 0 365 1281 A 3.5 3.5 0 0 0 368.5 1284.5 A 3.5 3.5 0 0 0 372 1281 A 3.5 3.5 0 0 0 368.5 1277.5 Z " fill-rule="nonzero" fill="#ffcc33" stroke="none" />
</svg>