<?xml version="1.0" encoding="utf-8"?>
<svg version="1.1" xmlns:xlink="http://www.w3.org/1999/xlink" width="21px" height="20px" preserveAspectRatio="xMinYMid meet" viewBox="436 358  21 18" xmlns="http://www.w3.org/2000/svg">
  <path d="M 404 368  L 425.5 368  A 0.5 0.5 0 0 0 426 367.5 A 0.5 0.5 0 0 1 426.5 367 L 448 367  " stroke-width="2" stroke="#ffcc33" fill="none" />
  <path d="M 405.5 364.5  A 3.5 3.5 0 0 0 402 368 A 3.5 3.5 0 0 0 405.5 371.5 A 3.5 3.5 0 0 0 409 368 A 3.5 3.5 0 0 0 405.5 364.5 Z M 446.5 363.5  A 3.5 3.5 0 0 0 443 367 A 3.5 3.5 0 0 0 446.5 370.5 A 3.5 3.5 0 0 0 450 367 A 3.5 3.5 0 0 0 446.5 363.5 Z " fill-rule="nonzero" fill="#ffcc33" stroke="none" />
</svg>