<?xml version="1.0" encoding="utf-8"?>
<svg version="1.1" xmlns:xlink="http://www.w3.org/1999/xlink" width="70px" height="4px" preserveAspectRatio="xMinYMid meet" viewBox="388 409  70 2" xmlns="http://www.w3.org/2000/svg">
  <path d="M 393.5 406.5  A 3.5 3.5 0 0 0 390 410 A 3.5 3.5 0 0 0 393.5 413.5 A 3.5 3.5 0 0 0 397 410 A 3.5 3.5 0 0 0 393.5 406.5 Z M 451.5 406.5  A 3.5 3.5 0 0 0 448 410 A 3.5 3.5 0 0 0 451.5 413.5 A 3.5 3.5 0 0 0 455 410 A 3.5 3.5 0 0 0 451.5 406.5 Z " fill-rule="nonzero" fill="#ffcc33" stroke="none" />
  <path d="M 392 410  L 453 410  " stroke-width="2" stroke="#ffcc33" fill="none" />
</svg>