<?xml version="1.0" encoding="utf-8"?>
<svg version="1.1" xmlns:xlink="http://www.w3.org/1999/xlink" width="24px" height="24px" preserveAspectRatio="xMinYMid meet" viewBox="382 339  24 22" xmlns="http://www.w3.org/2000/svg">
  <path d="M 393.5 346.5  A 3.5 3.5 0 0 0 390 350 A 3.5 3.5 0 0 0 393.5 353.5 A 3.5 3.5 0 0 0 397 350 A 3.5 3.5 0 0 0 393.5 346.5 Z M 451.5 346.5  A 3.5 3.5 0 0 0 448 350 A 3.5 3.5 0 0 0 451.5 353.5 A 3.5 3.5 0 0 0 455 350 A 3.5 3.5 0 0 0 451.5 346.5 Z " fill-rule="nonzero" fill="#ffcc33" stroke="none" />
  <path d="M 392 350  L 453 350  " stroke-width="2" stroke="#ffcc33" fill="none" />
</svg>