<?xml version="1.0" encoding="utf-8"?>
<svg version="1.1" xmlns:xlink="http://www.w3.org/1999/xlink" width="10px" height="978px" preserveAspectRatio="xMidYMin meet" viewBox="836 559  8 978" xmlns="http://www.w3.org/2000/svg">
  <path d="M 665 564  L 835 564  A 5 5 0 0 1 840 569 L 840 1527  A 5 5 0 0 1 835 1532 L 403 1532  " stroke-width="2" stroke="#ffcc33" fill="none" />
  <path d="M 666.5 560.5  A 3.5 3.5 0 0 0 663 564 A 3.5 3.5 0 0 0 666.5 567.5 A 3.5 3.5 0 0 0 670 564 A 3.5 3.5 0 0 0 666.5 560.5 Z M 404.5 1528.5  A 3.5 3.5 0 0 0 401 1532 A 3.5 3.5 0 0 0 404.5 1535.5 A 3.5 3.5 0 0 0 408 1532 A 3.5 3.5 0 0 0 404.5 1528.5 Z " fill-rule="nonzero" fill="#ffcc33" stroke="none" />
</svg>