<?xml version="1.0" encoding="utf-8"?>
<svg version="1.1" xmlns:xlink="http://www.w3.org/1999/xlink" width="26px" height="22px" preserveAspectRatio="xMinYMid meet" viewBox="438 557  26 20" xmlns="http://www.w3.org/2000/svg">
  <g transform="matrix(-1 0 0 -1 902 1134 )">
    <path d="M 393.5 563.5  A 3.5 3.5 0 0 0 390 567 A 3.5 3.5 0 0 0 393.5 570.5 A 3.5 3.5 0 0 0 397 567 A 3.5 3.5 0 0 0 393.5 563.5 Z M 451.5 563.5  A 3.5 3.5 0 0 0 448 567 A 3.5 3.5 0 0 0 451.5 570.5 A 3.5 3.5 0 0 0 455 567 A 3.5 3.5 0 0 0 451.5 563.5 Z " fill-rule="nonzero" fill="#ffcc33" stroke="none" />
    <path d="M 392 567  L 453 567  " stroke-width="2" stroke="#ffcc33" fill="none" />
  </g>
</svg>