<?xml version="1.0" encoding="utf-8"?>
<svg version="1.1" xmlns:xlink="http://www.w3.org/1999/xlink" width="21px" height="20px" preserveAspectRatio="xMinYMid meet" viewBox="451 246  21 18" xmlns="http://www.w3.org/2000/svg">
  <path d="M 176 95  L 176 250  A 5 5 0 0 0 181 255 L 463 255  " stroke-width="2" stroke="#ffcc33" fill="none" />
  <path d="M 176 93  A 3.5 3.5 0 0 0 172.5 96.5 A 3.5 3.5 0 0 0 176 100 A 3.5 3.5 0 0 0 179.5 96.5 A 3.5 3.5 0 0 0 176 93 Z M 461.5 251.5  A 3.5 3.5 0 0 0 458 255 A 3.5 3.5 0 0 0 461.5 258.5 A 3.5 3.5 0 0 0 465 255 A 3.5 3.5 0 0 0 461.5 251.5 Z " fill-rule="nonzero" fill="#ffcc33" stroke="none" />
</svg>