<?xml version="1.0" encoding="utf-8"?>
<svg version="1.1" xmlns:xlink="http://www.w3.org/1999/xlink" width="20px" height="10px" preserveAspectRatio="xMinYMid meet" viewBox="445 679  20 8" xmlns="http://www.w3.org/2000/svg">
  <path d="M 347 682  L 449.5 682  A 0.5 0.5 0 0 1 450 682.5 A 0.5 0.5 0 0 0 450.5 683 L 463 683  " stroke-width="2" stroke="#ffcc33" fill="none" />
  <path d="M 348.5 678.5  A 3.5 3.5 0 0 0 345 682 A 3.5 3.5 0 0 0 348.5 685.5 A 3.5 3.5 0 0 0 352 682 A 3.5 3.5 0 0 0 348.5 678.5 Z M 461.5 679.5  A 3.5 3.5 0 0 0 458 683 A 3.5 3.5 0 0 0 461.5 686.5 A 3.5 3.5 0 0 0 465 683 A 3.5 3.5 0 0 0 461.5 679.5 Z " fill-rule="nonzero" fill="#ffcc33" stroke="none" />
</svg>