<?xml version="1.0" encoding="utf-8"?>
<svg version="1.1" xmlns:xlink="http://www.w3.org/1999/xlink" width="21px" height="20px" preserveAspectRatio="xMinYMid meet" viewBox="254 79  21 18" xmlns="http://www.w3.org/2000/svg">
  <path d="M 263 88  L 428 88  A 2 2 0 0 0 430 86 A 2 2 0 0 1 432 84 L 440 84  " stroke-width="2" stroke="#ffcc33" fill="none" />
  <path d="M 264.5 84.5  A 3.5 3.5 0 0 0 261 88 A 3.5 3.5 0 0 0 264.5 91.5 A 3.5 3.5 0 0 0 268 88 A 3.5 3.5 0 0 0 264.5 84.5 Z M 438.5 80.5  A 3.5 3.5 0 0 0 435 84 A 3.5 3.5 0 0 0 438.5 87.5 A 3.5 3.5 0 0 0 442 84 A 3.5 3.5 0 0 0 438.5 80.5 Z " fill-rule="nonzero" fill="#ffcc33" stroke="none" />
</svg>