<?xml version="1.0" encoding="utf-8"?>
<svg version="1.1" xmlns:xlink="http://www.w3.org/1999/xlink" width="20px" height="10px" preserveAspectRatio="xMinYMid meet" viewBox="445 723  20 8" xmlns="http://www.w3.org/2000/svg">
  <path d="M 191 724  L 448.5 724  A 1.5 1.5 0 0 1 450 725.5 A 1.5 1.5 0 0 0 451.5 727 L 463 727  " stroke-width="2" stroke="#ffcc33" fill="none" />
  <path d="M 192.5 720.5  A 3.5 3.5 0 0 0 189 724 A 3.5 3.5 0 0 0 192.5 727.5 A 3.5 3.5 0 0 0 196 724 A 3.5 3.5 0 0 0 192.5 720.5 Z M 461.5 723.5  A 3.5 3.5 0 0 0 458 727 A 3.5 3.5 0 0 0 461.5 730.5 A 3.5 3.5 0 0 0 465 727 A 3.5 3.5 0 0 0 461.5 723.5 Z " fill-rule="nonzero" fill="#ffcc33" stroke="none" />
</svg>