<?xml version="1.0" encoding="utf-8"?>
<svg version="1.1" xmlns:xlink="http://www.w3.org/1999/xlink" width="374px" height="10px" preserveAspectRatio="xMinYMid meet" viewBox="81 633  374 8" xmlns="http://www.w3.org/2000/svg">
  <path d="M 83 637  L 449.5 637  A 0.5 0.5 0 0 0 450 636.5 A 0.5 0.5 0 0 1 450.5 636 L 463 636  " stroke-width="2" stroke="#ffcc33" fill="none" />
  <path d="M 84.5 633.5  A 3.5 3.5 0 0 0 81 637 A 3.5 3.5 0 0 0 84.5 640.5 A 3.5 3.5 0 0 0 88 637 A 3.5 3.5 0 0 0 84.5 633.5 Z M 461.5 632.5  A 3.5 3.5 0 0 0 458 636 A 3.5 3.5 0 0 0 461.5 639.5 A 3.5 3.5 0 0 0 465 636 A 3.5 3.5 0 0 0 461.5 632.5 Z " fill-rule="nonzero" fill="#ffcc33" stroke="none" />
</svg>