<?xml version="1.0" encoding="utf-8"?>
<svg version="1.1" xmlns:xlink="http://www.w3.org/1999/xlink" width="10px" height="10px" preserveAspectRatio="xMinYMid meet" viewBox="1335 294  10 8" xmlns="http://www.w3.org/2000/svg">
  <path d="M 1344 298  A 4 4 0 0 0 1340 302 A 4 4 0 0 0 1344 306 L 1412 306  " stroke-width="2" stroke="#ffcc33" fill="none" />
  <path d="M 1341.65961090824 295.256147521979  A 3.5 3.5 0 0 0 1338.15961090824 298.756147521979 A 3.5 3.5 0 0 0 1341.65961090824 302.256147521979 A 3.5 3.5 0 0 0 1345.15961090824 298.756147521979 A 3.5 3.5 0 0 0 1341.65961090824 295.256147521979 Z M 1410.5 302.5  A 3.5 3.5 0 0 0 1407 306 A 3.5 3.5 0 0 0 1410.5 309.5 A 3.5 3.5 0 0 0 1414 306 A 3.5 3.5 0 0 0 1410.5 302.5 Z " fill-rule="nonzero" fill="#ffcc33" stroke="none" />
</svg>