<?xml version="1.0" encoding="utf-8"?>
<svg version="1.1" xmlns:xlink="http://www.w3.org/1999/xlink" width="21px" height="20px" preserveAspectRatio="xMinYMid meet" viewBox="1400 716  21 18" xmlns="http://www.w3.org/2000/svg">
  <path d="M 1168 756  L 1168 845  A 5 5 0 0 0 1173 850 L 1395 850  A 5 5 0 0 0 1400 845 L 1400 730  A 5 5 0 0 1 1405 725 L 1412 725  " stroke-width="2" stroke="#ffcc33" fill="none" />
  <path d="M 1168 754  A 3.5 3.5 0 0 0 1164.5 757.5 A 3.5 3.5 0 0 0 1168 761 A 3.5 3.5 0 0 0 1171.5 757.5 A 3.5 3.5 0 0 0 1168 754 Z M 1410.5 721.5  A 3.5 3.5 0 0 0 1407 725 A 3.5 3.5 0 0 0 1410.5 728.5 A 3.5 3.5 0 0 0 1414 725 A 3.5 3.5 0 0 0 1410.5 721.5 Z " fill-rule="nonzero" fill="#ffcc33" stroke="none" />
</svg>