<?xml version="1.0" encoding="utf-8"?>
<svg version="1.1" xmlns:xlink="http://www.w3.org/1999/xlink" width="21px" height="20px" preserveAspectRatio="xMinYMid meet" viewBox="1326 325  21 18" xmlns="http://www.w3.org/2000/svg">
  <path d="M 1335 334  L 1395 334  A 5 5 0 0 1 1400 339 L 1400 352  A 5 5 0 0 0 1405 357 L 1412 357  " stroke-width="2" stroke="#ffcc33" fill="none" />
  <path d="M 1336.5 330.5  A 3.5 3.5 0 0 0 1333 334 A 3.5 3.5 0 0 0 1336.5 337.5 A 3.5 3.5 0 0 0 1340 334 A 3.5 3.5 0 0 0 1336.5 330.5 Z M 1410.5 353.5  A 3.5 3.5 0 0 0 1407 357 A 3.5 3.5 0 0 0 1410.5 360.5 A 3.5 3.5 0 0 0 1414 357 A 3.5 3.5 0 0 0 1410.5 353.5 Z " fill-rule="nonzero" fill="#ffcc33" stroke="none" />
</svg>