<?xml version="1.0" encoding="utf-8"?>
<svg version="1.1" xmlns:xlink="http://www.w3.org/1999/xlink" width="10px" height="240px" preserveAspectRatio="xMidYMin meet" viewBox="1056 735  8 240" xmlns="http://www.w3.org/2000/svg">
  <path d="M 1170 709  L 1170 735  A 5 5 0 0 1 1165 740 L 1065 740  A 5 5 0 0 0 1060 745 L 1060 965  A 5 5 0 0 0 1065 970 L 1068 970  " stroke-width="2" stroke="#ffcc33" fill="none" />
  <path d="M 1170 707  A 3.5 3.5 0 0 0 1166.5 710.5 A 3.5 3.5 0 0 0 1170 714 A 3.5 3.5 0 0 0 1173.5 710.5 A 3.5 3.5 0 0 0 1170 707 Z M 1066.5 966.5  A 3.5 3.5 0 0 0 1063 970 A 3.5 3.5 0 0 0 1066.5 973.5 A 3.5 3.5 0 0 0 1070 970 A 3.5 3.5 0 0 0 1066.5 966.5 Z " fill-rule="nonzero" fill="#ffcc33" stroke="none" />
</svg>