<?xml version="1.0" encoding="utf-8"?>
<svg version="1.1" xmlns:xlink="http://www.w3.org/1999/xlink" width="279px" height="10px" preserveAspectRatio="xMinYMid meet" viewBox="216 1570  279 8" xmlns="http://www.w3.org/2000/svg">
  <path d="M 218 1574  L 488 1574  " stroke-width="2" stroke="#ffcc33" fill="none" />
  <path d="M 219.5 1570.5  A 3.5 3.5 0 0 0 216 1574 A 3.5 3.5 0 0 0 219.5 1577.5 A 3.5 3.5 0 0 0 223 1574 A 3.5 3.5 0 0 0 219.5 1570.5 Z M 486.5 1570.5  A 3.5 3.5 0 0 0 483 1574 A 3.5 3.5 0 0 0 486.5 1577.5 A 3.5 3.5 0 0 0 490 1574 A 3.5 3.5 0 0 0 486.5 1570.5 Z " fill-rule="nonzero" fill="#ffcc33" stroke="none" />
</svg>