<?xml version="1.0" encoding="utf-8"?>
<svg version="1.1" xmlns:xlink="http://www.w3.org/1999/xlink" width="75px" height="10px" preserveAspectRatio="xMinYMid meet" viewBox="1630 721  75 8" xmlns="http://www.w3.org/2000/svg">
  <path d="M 1632 725  L 1695 725  A 5 5 0 0 0 1700 720 L 1700 652  A 5 5 0 0 1 1705 647 L 1716 647  " stroke-width="2" stroke="#ffcc33" fill="none" />
  <path d="M 1633.5 721.5  A 3.5 3.5 0 0 0 1630 725 A 3.5 3.5 0 0 0 1633.5 728.5 A 3.5 3.5 0 0 0 1637 725 A 3.5 3.5 0 0 0 1633.5 721.5 Z M 1714.5 643.5  A 3.5 3.5 0 0 0 1711 647 A 3.5 3.5 0 0 0 1714.5 650.5 A 3.5 3.5 0 0 0 1718 647 A 3.5 3.5 0 0 0 1714.5 643.5 Z " fill-rule="nonzero" fill="#ffcc33" stroke="none" />
</svg>