<?xml version="1.0" encoding="utf-8"?>
<svg version="1.1" xmlns:xlink="http://www.w3.org/1999/xlink" width="10px" height="5px" preserveAspectRatio="xMinYMid meet" viewBox="1088 524  10 3" xmlns="http://www.w3.org/2000/svg">
  <path d="M 1092 529  L 995 529  A 5 5 0 0 0 990 534 L 990 605  A 5 5 0 0 0 995 610 L 1025 610  A 5 5 0 0 1 1030 615 L 1030 631  A 5 5 0 0 0 1035 636 L 1395 636  A 5 5 0 0 0 1400 631 L 1400 535  A 5 5 0 0 1 1405 530 L 1412 530  " stroke-width="2" stroke="#ffcc33" fill="none" />
  <path d="M 1090.07079632679 525.5  A 3.5 3.5 0 0 0 1086.57079632679 529 A 3.5 3.5 0 0 0 1090.07079632679 532.5 A 3.5 3.5 0 0 0 1093.57079632679 529 A 3.5 3.5 0 0 0 1090.07079632679 525.5 Z M 1410.5 526.5  A 3.5 3.5 0 0 0 1407 530 A 3.5 3.5 0 0 0 1410.5 533.5 A 3.5 3.5 0 0 0 1414 530 A 3.5 3.5 0 0 0 1410.5 526.5 Z " fill-rule="nonzero" fill="#ffcc33" stroke="none" />
</svg>